# Blender v2.91.2 OBJ File: ''
# www.blender.org
mtllib rock_2.mtl
o Sphere_Sphere.001
v 6.461210 0.418391 -13.630468
v 6.419459 0.415751 -13.583480
v 6.360220 0.376160 -13.622039
v 6.302479 0.356783 -13.650535
v 6.317488 0.345330 -13.714546
v 6.379331 0.365001 -13.686018
v 6.215644 1.210660 -13.734319
v 6.215644 1.201268 -13.636941
v 6.310113 1.140758 -13.685873
v 6.331001 1.162559 -13.749123
v 6.215644 0.774212 -13.344132
v 6.215644 0.681860 -13.333914
v 6.283643 0.674296 -13.338904
v 6.305984 0.757173 -13.356498
v 6.114319 1.143882 -13.835722
v 6.100287 1.162559 -13.749123
v 6.215644 1.131298 -13.934515
v 6.139197 1.106509 -13.935470
v 6.215644 0.873825 -13.372963
v 6.300089 0.828793 -13.404992
v 5.968843 0.465256 -13.812753
v 5.954497 0.424836 -13.740496
v 5.874115 0.555752 -13.679577
v 5.818404 0.694831 -13.651753
v 5.817285 0.743069 -13.714596
v 5.838500 0.781821 -13.786364
v 5.872888 0.813698 -13.867223
v 5.912499 0.839865 -13.950266
v 6.018395 0.637869 -14.036765
v 6.078229 0.557041 -14.095721
v 6.070923 0.481561 -14.035839
v 6.050899 0.389917 -13.874544
v 6.317264 1.015249 -14.009837
v 6.378404 0.936485 -14.038554
v 6.247034 0.985505 -14.034610
v 6.268254 1.046333 -14.002059
v 6.476792 0.424836 -13.740496
v 6.475648 0.418112 -13.679192
v 6.385434 0.364909 -13.747360
v 6.386528 0.366976 -13.800882
v 6.087419 0.649154 -13.348755
v 6.147646 0.674296 -13.338904
v 6.125304 0.757173 -13.356498
v 5.994175 0.652942 -13.411812
v 6.036982 0.611693 -13.372697
v 6.316970 1.143882 -13.835723
v 6.292092 1.106509 -13.935470
v 6.009491 0.993328 -13.966645
v 6.062768 1.057314 -13.948423
v 6.114025 1.015250 -14.009837
v 6.052885 0.936485 -14.038554
v 5.979423 0.932180 -13.992704
v 6.293160 0.491637 -14.063292
v 6.138129 0.491637 -14.063292
v 6.148291 0.526825 -14.113441
v 6.282998 0.526825 -14.113441
v 6.437113 0.652942 -13.411812
v 6.394307 0.611693 -13.372697
v 6.430518 0.566186 -13.409304
v 6.511387 0.593478 -13.421655
v 6.490078 1.000120 -13.882801
v 6.519116 0.979154 -13.832604
v 6.590445 0.918533 -13.840109
v 6.529450 0.921145 -13.917633
v 6.421798 0.993328 -13.966645
v 6.451866 0.932180 -13.992704
v 6.558401 0.813698 -13.867223
v 6.518789 0.839865 -13.950266
v 6.529899 0.618099 -13.487594
v 6.509523 0.536670 -13.469869
v 6.555922 0.560908 -13.487478
v 6.453863 0.869386 -14.024538
v 5.839174 0.887271 -13.792482
v 5.854985 0.837131 -13.730694
v 5.832589 0.641065 -13.588572
v 5.836138 0.600133 -13.524393
v 5.875367 0.560908 -13.487478
v 5.901390 0.618099 -13.487594
v 5.919901 0.593478 -13.421655
v 6.131199 0.828793 -13.404992
v 6.121175 1.140758 -13.685873
v 6.377110 0.885849 -14.055358
v 6.298869 0.410733 -13.554805
v 6.132420 0.410733 -13.554805
v 6.094615 0.382087 -13.599832
v 6.071069 0.376160 -13.622039
v 6.128810 0.356783 -13.650535
v 6.113801 0.345330 -13.714546
v 6.326581 0.773706 -14.079782
v 6.376695 0.706842 -14.089058
v 6.322498 0.641562 -14.096992
v 6.353060 0.557041 -14.095721
v 6.108791 0.641562 -14.096992
v 6.054594 0.706842 -14.089058
v 6.104708 0.773706 -14.079782
v 6.054179 0.885849 -14.055358
v 6.592115 0.887271 -13.792482
v 6.576304 0.837131 -13.730694
v 6.614004 0.743069 -13.714596
v 6.592788 0.781821 -13.786364
v 6.215644 1.060632 -13.993670
v 6.412893 0.637869 -14.036765
v 5.977426 0.869386 -14.024538
v 6.595150 0.600133 -13.524393
v 6.504921 0.491028 -13.544233
v 6.535941 0.502802 -13.572190
v 6.598700 0.641065 -13.588572
v 6.561732 0.512747 -13.613750
v 6.612885 0.694831 -13.651753
v 6.557174 0.555752 -13.679577
v 5.987335 0.516391 -13.457194
v 5.921766 0.536670 -13.469869
v 6.011829 0.415751 -13.583480
v 6.044760 0.366976 -13.800882
v 6.045855 0.364909 -13.747360
v 6.051958 0.365001 -13.686018
v 5.970079 0.418391 -13.630468
v 5.955640 0.418112 -13.679192
v 6.462445 0.465256 -13.812753
v 6.380390 0.389917 -13.874544
v 6.319916 0.347452 -13.769989
v 6.316426 0.371744 -13.837747
v 6.294851 0.598309 -13.364922
v 6.343870 0.649154 -13.348755
v 6.136437 0.598309 -13.364922
v 6.360365 0.481561 -14.035839
v 5.912172 0.979154 -13.832604
v 5.840844 0.918533 -13.840109
v 5.941210 1.000120 -13.882801
v 6.000771 0.566186 -13.409304
v 6.111372 0.347452 -13.769989
v 6.114863 0.371744 -13.837747
v 5.926367 0.491028 -13.544233
v 5.895347 0.502802 -13.572190
v 5.869556 0.512747 -13.613750
v 5.901839 0.921145 -13.917633
v 6.351041 0.544060 -13.411517
v 6.368520 1.057314 -13.948423
vt 0.937467 0.642964
vt 0.901869 0.637871
vt 0.901413 0.591621
vt 0.896202 0.554830
vt 0.931313 0.540301
vt 0.937852 0.578843
vt 0.284013 0.410906
vt 0.306833 0.451503
vt 0.237665 0.460642
vt 0.216256 0.427822
vt 0.293754 0.745442
vt 0.277431 0.789076
vt 0.242699 0.791491
vt 0.244721 0.749509
vt 0.269233 0.284280
vt 0.316752 0.298968
vt 0.295468 0.365419
vt 0.190918 0.304748
vt 0.210067 0.264762
vt 0.306834 0.691693
vt 0.249837 0.700354
vt 0.758163 0.132904
vt 0.711935 0.120068
vt 0.731584 0.054735
vt 0.768141 0.006269
vt 0.813343 0.008629
vt 0.858493 0.025337
vt 0.904935 0.051128
vt 0.950232 0.080648
vt 0.917242 0.170573
vt 0.914480 0.219209
vt 0.861796 0.215434
vt 0.757614 0.193501
vt 0.111518 0.289350
vt 0.070592 0.279184
vt 0.116925 0.246330
vt 0.133307 0.282940
vt 0.993731 0.621848
vt 0.964953 0.635695
vt 0.968470 0.564904
vt 0.993731 0.551692
vt 0.556115 0.510489
vt 0.590978 0.510388
vt 0.596981 0.560099
vt 0.499106 0.540394
vt 0.518362 0.504696
vt 0.248796 0.390617
vt 0.209541 0.364780
vt 0.165032 0.325498
vt 0.220140 0.165259
vt 0.220635 0.213637
vt 0.171383 0.208616
vt 0.166474 0.149875
vt 0.209415 0.125997
vt 0.868365 0.339589
vt 0.874952 0.254682
vt 0.909438 0.262962
vt 0.903715 0.336739
vt 0.147769 0.775647
vt 0.169349 0.807458
vt 0.133728 0.813876
vt 0.098226 0.798702
vt 0.622252 0.100113
vt 0.641478 0.129661
vt 0.637469 0.165286
vt 0.593187 0.130830
vt 0.570439 0.066884
vt 0.548156 0.090892
vt 0.582898 0.199755
vt 0.550479 0.155978
vt 0.077826 0.763622
vt 0.075211 0.805058
vt 0.053926 0.788706
vt 0.515521 0.109734
vt 0.382253 0.752288
vt 0.394207 0.713444
vt 0.359275 0.669612
vt 0.365708 0.634361
vt 0.376463 0.593734
vt 0.386134 0.561560
vt 0.403731 0.527939
vt 0.429060 0.552425
vt 0.449698 0.525512
vt 0.603460 0.603703
vt 0.659973 0.605621
vt 0.665982 0.816976
vt 0.596501 0.811756
vt 0.512699 0.063797
vt 0.488851 0.081353
vt 0.848891 0.595389
vt 0.794031 0.528303
vt 0.803354 0.492307
vt 0.806112 0.475081
vt 0.838964 0.484835
vt 0.864181 0.458207
vt 0.057030 0.256772
vt 0.047115 0.190141
vt 0.020082 0.183090
vt 0.024600 0.135411
vt 0.006269 0.115443
vt 0.014924 0.073378
vt 0.054603 0.019867
vt 0.087220 0.006269
vt 0.087547 0.050518
vt 0.114957 0.055138
vt 0.112468 0.102005
vt 0.152149 0.128491
vt 0.644756 0.194710
vt 0.646023 0.234613
vt 0.630078 0.287949
vt 0.611134 0.244679
vt 0.154475 0.268777
vt 0.851820 0.772353
vt 0.820158 0.734726
vt 0.875250 0.741396
vt 0.420671 0.205179
vt 0.415133 0.152098
vt 0.991555 0.122574
vt 0.963017 0.189883
vt 0.927151 0.780726
vt 0.898088 0.762795
vt 0.909665 0.705765
vt 0.932602 0.714400
vt 0.187481 0.096381
vt 0.637379 0.371693
vt 0.646023 0.409952
vt 0.578990 0.430541
vt 0.574146 0.416728
vt 0.636395 0.329465
vt 0.563391 0.375824
vt 0.960207 0.716739
vt 0.494205 0.426622
vt 0.474265 0.404469
vt 0.427722 0.117290
vt 0.697792 0.528126
vt 0.681533 0.504506
vt 0.767519 0.473579
vt 0.355005 0.214667
vt 0.375092 0.171372
vt 0.716294 0.183167
vt 0.690967 0.177189
vt 0.662564 0.172736
vt 0.658560 0.115305
vt 0.681458 0.113610
vt 0.457587 0.361291
vt 0.407616 0.398620
vt 0.386687 0.364147
vt 0.957908 0.527131
vt 0.701773 0.370348
vt 0.676538 0.363170
vt 0.683820 0.331969
vt 0.723293 0.336139
vt 0.627730 0.447646
vt 0.665982 0.461855
vt 0.649241 0.484597
vt 0.623414 0.500568
vt 0.559863 0.477688
vt 0.902804 0.369728
vt 0.849498 0.373957
vt 0.574912 0.837232
vt 0.424906 0.792220
vt 0.377140 0.775804
vt 0.039142 0.578689
vt 0.026292 0.534129
vt 0.034168 0.758538
vt 0.024580 0.716865
vt 0.012881 0.670194
vt 0.006269 0.625836
vt 0.310897 0.141498
vt 0.280931 0.153438
vt 0.481087 0.494133
vt 0.692681 0.217754
vt 0.666396 0.212267
vt 0.731857 0.225746
vt 0.743614 0.373957
vt 0.353220 0.268870
vt 0.398708 0.443079
vt 0.422613 0.503810
vt 0.392009 0.491590
vt 0.373664 0.508082
vt 0.368062 0.460010
vt 0.942310 0.227343
vt 0.663476 0.058225
vt 0.687018 0.048343
vt 0.720360 0.011594
vt 0.353220 0.524858
vt 0.238463 0.070564
vt 0.286554 0.057415
vt 0.321212 0.088860
vt 0.266679 0.102338
vt 0.775597 0.445018
vt 0.829954 0.446898
vt 0.357504 0.697206
vt 0.331398 0.043828
vt 0.340683 0.083467
vt 0.449283 0.478885
vt 0.753865 0.701695
vt 0.795604 0.695350
vt 0.789902 0.743790
vt 0.761086 0.741285
vt 0.641450 0.024250
vt 0.584471 0.035732
vt 0.585184 0.006269
vt 0.678519 0.561520
vt 0.701653 0.637848
vt 0.069180 0.478370
vt 0.074348 0.450054
vt 0.197009 0.403154
vt 0.021377 0.502755
vt 0.533498 0.028075
vt 0.130576 0.335094
vt 0.206778 0.799538
vt 0.889174 0.443079
vt 0.338122 0.308520
vt 0.340683 0.376588
vt 0.643448 0.549712
vn 0.3129 -0.9141 0.2578
vn 0.5012 0.8349 0.2273
vn 0.1293 0.1393 0.9818
vn -0.2749 0.8999 -0.3385
vn 0.3554 0.3948 0.8472
vn -0.8503 -0.3208 -0.4171
vn 0.1329 0.4300 -0.8930
vn 0.5155 -0.8567 0.0185
vn -0.4635 0.2164 0.8593
vn 0.2749 0.8999 -0.3385
vn -0.4286 0.5571 -0.7112
vn 0.0000 -0.8186 -0.5744
vn 0.3854 -0.0026 0.9227
vn 0.6759 0.6444 -0.3575
vn 0.6224 0.5503 -0.5566
vn 0.8454 -0.0226 -0.5337
vn 0.8082 -0.0751 0.5840
vn 0.7340 0.2401 -0.6352
vn -0.6438 0.5004 0.5789
vn 0.4637 0.3516 -0.8133
vn 0.0050 -0.9213 0.3888
vn 0.0000 0.1736 -0.9848
vn 0.9759 0.1980 0.0923
vn -0.2191 0.6461 -0.7311
vn 0.9419 -0.1088 -0.3178
vn 0.3186 -0.6194 0.7175
vn 0.7400 -0.0958 -0.6658
vn -0.7400 -0.0958 -0.6658
vn 0.7169 -0.6422 0.2714
vn -0.2767 0.1772 -0.9445
vn 0.9116 -0.4070 0.0571
vn 0.9428 -0.2966 -0.1521
vn 0.6500 -0.7299 0.2115
vn 0.8396 -0.4979 -0.2173
vn 0.2767 0.1772 -0.9445
vn -0.2666 -0.7845 0.5599
vn 0.5524 -0.0501 -0.8321
vn -0.5155 -0.8567 0.0185
vn 0.7168 -0.5972 -0.3599
vn 0.2785 -0.9604 0.0036
vn 0.1829 -0.9599 -0.2122
vn -0.0000 -0.3318 0.9433
vn 0.3232 -0.6411 -0.6961
vn -0.7020 0.6280 0.3359
vn 0.6438 0.5004 0.5789
vn -0.6227 0.7607 -0.1833
vn -0.3232 -0.6411 -0.6961
vn -0.1333 -0.4897 0.8617
vn -0.2785 -0.9604 0.0037
vn -0.1829 -0.9599 -0.2122
vn 0.0000 -0.8958 -0.4445
vn -0.5303 0.7481 -0.3988
vn -0.7168 -0.5972 -0.3599
vn 0.8503 -0.3208 -0.4171
vn -0.5151 -0.7572 0.4017
vn -0.5523 -0.0501 -0.8321
vn 0.5151 -0.7572 0.4017
vn -0.0647 0.4307 -0.9002
vn -0.6500 -0.7299 0.2115
vn -0.8396 -0.4979 -0.2173
vn -0.9428 -0.2966 -0.1521
vn -0.7169 -0.6422 0.2714
vn -0.9116 -0.4070 0.0571
vn -0.8454 -0.0226 -0.5337
vn -0.8083 -0.0751 0.5840
vn -0.7340 0.2401 -0.6352
vn -0.3129 -0.9141 0.2578
vn -0.4637 0.3516 -0.8133
vn -0.9759 0.1980 0.0923
vn -0.9419 -0.1088 -0.3178
vn -0.3226 -0.6142 0.7202
vn 0.1336 -0.5180 0.8449
vn -0.3854 -0.0026 0.9227
vn -0.6759 0.6444 -0.3575
vn 0.1893 -0.7561 0.6264
vn -0.6224 0.5503 -0.5566
vn 0.5303 0.7481 -0.3988
vn -0.0366 -0.7154 0.6978
vn 0.6227 0.7607 -0.1833
vn 0.7020 0.6280 0.3359
vn 0.4286 0.5571 -0.7112
vn 0.2304 0.6623 -0.7130
vn 0.4635 0.2164 0.8593
vn 0.0000 -0.9993 -0.0382
vn -0.5012 0.8349 0.2273
vn -0.1293 0.1393 0.9818
vn -0.3554 0.3948 0.8472
usemtl (null).001
s 1
f 1/1/1 2/2/1 3/3/1 4/4/1 5/5/1 6/6/1
f 7/7/2 8/8/2 9/9/2 10/10/2
f 11/11/3 12/12/3 13/13/3 14/14/3
f 15/15/4 16/16/4 7/17/4 17/18/4 18/19/4
f 19/20/5 11/11/5 14/14/5 20/21/5
f 21/22/6 22/23/6 23/24/6 24/25/6 25/26/6 26/27/6 27/28/6 28/29/6 29/30/6 30/31/6 31/32/6 32/33/6
f 33/34/7 34/35/7 35/36/7 36/37/7
f 37/38/8 38/39/8 1/1/8 6/6/8 39/40/8 40/41/8
f 41/42/9 42/43/9 43/44/9 44/45/9 45/46/9
f 17/18/10 7/17/10 10/47/10 46/48/10 47/49/10
f 48/50/11 49/51/11 50/52/11 51/53/11 52/54/11
f 53/55/12 54/56/12 55/57/12 56/58/12
f 57/59/13 58/60/13 59/61/13 60/62/13
f 61/63/14 62/64/14 63/65/14 64/66/14
f 65/67/15 61/63/15 64/66/15 66/68/15
f 64/66/16 63/65/16 67/69/16 68/70/16
f 69/71/17 60/62/17 70/72/17 71/73/17
f 66/68/18 64/66/18 68/70/18 72/74/18
f 73/75/19 74/76/19 25/77/19 24/78/19 75/79/19 76/80/19 77/81/19 78/82/19 79/83/19 44/45/19 43/44/19 80/84/19 19/85/19 8/86/19 81/87/19
f 34/88/20 66/68/20 72/74/20 82/89/20
f 83/90/21 84/91/21 85/92/21 86/93/21 87/94/21 88/95/21 5/5/21 4/4/21 3/3/21
f 82/96/22 89/97/22 90/98/22 91/99/22 92/100/22 56/101/22 55/102/22 30/103/22 93/104/22 94/105/22 95/106/22 96/107/22 51/53/22 35/36/22 34/35/22
f 97/108/23 98/109/23 99/110/23 100/111/23
f 18/19/24 17/18/24 101/112/24 50/52/24 49/51/24
f 63/65/25 97/108/25 100/111/25 67/69/25
f 60/113/26 59/114/26 70/115/26
f 68/70/27 102/116/27 90/117/27 72/74/27
f 29/30/28 28/29/28 103/118/28 94/119/28
f 104/120/29 71/121/29 105/122/29 106/123/29
f 94/105/30 103/124/30 96/107/30 95/106/30
f 107/125/31 104/126/31 106/127/31 108/128/31
f 109/129/32 107/125/32 108/128/32 110/130/32
f 108/131/33 106/123/33 1/1/33 38/39/33
f 110/130/34 108/128/34 38/132/34 37/133/34
f 72/74/35 90/117/35 89/134/35 82/89/35
f 85/92/36 111/135/36 112/136/36 113/137/36 86/93/36
f 90/117/37 102/116/37 92/138/37 91/139/37
f 114/140/38 115/141/38 116/142/38 117/143/38 118/144/38 22/23/38
f 119/145/39 37/133/39 40/146/39 120/147/39
f 39/40/40 6/6/40 5/5/40 121/148/40
f 40/149/41 39/150/41 121/151/41 122/152/41
f 123/153/42 124/154/42 13/155/42 12/156/42 42/43/42 41/42/42 125/157/42
f 92/158/43 126/159/43 53/55/43 56/58/43
f 73/75/44 81/87/44 16/160/44 127/161/44 128/162/44
f 98/163/45 97/164/45 9/9/45 8/8/45 19/20/45 20/21/45 14/14/45 57/59/45 60/62/45 69/71/45 71/73/45 104/165/45 107/166/45 109/167/45 99/168/45
f 127/169/46 16/16/46 15/15/46 129/170/46
f 55/57/47 54/56/47 31/32/47 30/31/47
f 130/171/48 125/157/48 41/42/48 45/46/48
f 131/172/49 88/173/49 116/142/49 115/141/49
f 132/174/50 131/172/50 115/141/50 114/140/50
f 121/151/51 131/172/51 132/174/51 114/140/51 32/33/51 31/32/51 54/56/51 53/55/51 126/159/51 120/175/51 40/149/51 122/152/51
f 129/170/52 15/15/52 18/19/52 49/51/52 48/50/52
f 32/33/53 114/140/53 22/23/53 21/22/53
f 100/111/54 99/110/54 109/129/54 110/130/54 37/133/54 119/145/54 120/147/54 126/176/54 92/138/54 102/116/54 68/70/54 67/69/54
f 113/177/55 112/178/55 77/81/55 133/179/55 134/180/55 117/181/55
f 93/182/56 30/31/56 29/30/56 94/119/56
f 70/115/57 2/2/57 1/1/57 106/123/57 105/122/57 71/121/57
f 50/52/58 101/112/58 36/37/58 35/36/58 51/53/58
f 118/144/59 117/143/59 134/183/59 135/184/59
f 22/23/60 118/144/60 135/184/60 23/24/60
f 23/24/61 135/184/61 75/185/61 24/25/61
f 134/180/62 133/179/62 77/81/62 76/80/62
f 135/186/63 134/180/63 76/80/63 75/79/63
f 28/187/64 27/188/64 128/189/64 136/190/64
f 77/81/65 112/178/65 79/83/65 78/82/65
f 103/124/66 28/187/66 136/190/66 52/54/66
f 86/93/67 113/137/67 117/191/67 116/192/67 88/95/67 87/94/67
f 96/107/68 103/124/68 52/54/68 51/53/68
f 26/193/69 25/77/69 74/76/69 73/75/69
f 27/188/70 26/194/70 73/195/70 128/189/70
f 112/178/71 111/196/71 130/171/71 79/83/71
f 123/197/72 137/198/72 59/114/72 58/199/72 124/200/72
f 79/83/73 130/171/73 45/46/73 44/45/73
f 136/190/74 128/189/74 127/169/74 129/170/74
f 137/198/75 83/90/75 3/3/75 2/2/75 70/115/75 59/114/75
f 52/54/76 136/190/76 129/170/76 48/50/76
f 46/201/77 61/63/77 65/67/77 138/202/77 47/203/77
f 130/204/78 111/135/78 85/92/78 84/91/78 83/90/78 137/198/78 123/197/78 125/205/78
f 10/10/79 62/206/79 61/207/79 46/208/79
f 9/9/80 97/164/80 63/209/80 62/206/80 10/10/80
f 65/67/81 66/68/81 34/88/81 33/210/81 138/202/81
f 47/49/82 138/211/82 33/34/82 36/37/82 101/112/82 17/18/82
f 124/212/83 58/60/83 57/59/83 14/14/83 13/13/83
f 5/5/84 88/95/84 131/213/84 121/148/84
f 16/16/85 81/214/85 8/215/85 7/17/85
f 43/44/86 42/43/86 12/156/86 11/216/86
f 80/84/87 43/44/87 11/216/87 19/85/87
