# Blender v2.80 (sub 75) OBJ File: 'padestal.blend'
# www.blender.org
mtllib padestal.mtl
v -1.000000 0.000000 1.000000
v -1.000000 0.000000 -1.000000
v 1.000000 0.000000 1.000000
v 1.000000 0.000000 -1.000000
v -0.947731 0.525000 -0.947731
v 0.947731 0.525000 -0.947731
v 0.947731 0.525000 0.947731
v -0.947731 0.525000 0.947731
v -1.000000 0.525000 1.000000
v -1.000000 0.525000 -1.000000
v 1.000000 0.525000 -1.000000
v 1.000000 0.525000 1.000000
v -0.946271 0.582792 0.946271
v -0.946271 0.582792 -0.946271
v 0.946271 0.582792 -0.946271
v 0.946271 0.582792 0.946271
v -0.864379 0.626791 0.864379
v -0.864379 0.626791 -0.864379
v 0.864379 0.626791 -0.864379
v 0.864379 0.626791 0.864379
v -0.777672 0.738683 0.777672
v -0.777672 0.738683 -0.777672
v 0.777672 0.738683 -0.777672
v 0.777672 0.738683 0.777672
v -0.777672 4.276983 0.777672
v -0.777672 4.276983 -0.777672
v 0.777672 4.276983 -0.777672
v 0.777672 4.276983 0.777672
v -0.880432 4.361161 0.880432
v -0.880432 4.361161 -0.880432
v 0.880432 4.361161 -0.880432
v 0.880432 4.361161 0.880432
v -0.880432 4.412963 0.880432
v -0.880432 4.412963 -0.880432
v 0.880432 4.412963 -0.880432
v 0.880432 4.412963 0.880432
v -0.949569 4.412963 0.949569
v -0.949569 4.412963 -0.949569
v 0.949569 4.412963 -0.949569
v 0.949569 4.412963 0.949569
v -0.717924 4.523043 0.717924
v -0.717924 4.523043 -0.717924
v 0.717924 4.523043 -0.717924
v 0.717924 4.523043 0.717924
v -0.949569 4.523043 0.949569
v -0.949569 4.523043 -0.949569
v 0.949569 4.523043 -0.949569
v 0.949569 4.523043 0.949569
v -0.717924 4.728179 0.717924
v -0.717924 4.728179 -0.717924
v 0.717924 4.728179 -0.717924
v 0.717924 4.728179 0.717924
vt 0.723961 0.998011
vt 0.723961 0.723860
vt 0.998112 0.723860
vt 0.998112 0.998011
vt 0.716403 0.997766
vt 0.644439 0.997766
vt 0.644439 0.723615
vt 0.716403 0.723615
vt 0.276530 0.002379
vt 0.276530 0.074343
vt 0.002379 0.074343
vt 0.002379 0.002379
vt 0.724403 0.716951
vt 0.724403 0.644987
vt 0.998554 0.644987
vt 0.998554 0.716951
vt 0.709582 0.002460
vt 0.709582 0.074425
vt 0.435431 0.074425
vt 0.435432 0.002460
vt 0.991389 0.637822
vt 0.731568 0.637822
vt 0.731768 0.629897
vt 0.991189 0.629897
vt 0.637274 0.990601
vt 0.637274 0.730780
vt 0.269365 0.081508
vt 0.009544 0.081508
vt 0.702417 0.081590
vt 0.442596 0.081590
vt 0.442796 0.089514
vt 0.702217 0.089514
vt 0.690992 0.102257
vt 0.454022 0.102257
vt 0.629350 0.990401
vt 0.629350 0.730980
vt 0.269165 0.089433
vt 0.009744 0.089433
vt 0.979963 0.617154
vt 0.742993 0.617155
vt 0.754879 0.597751
vt 0.968078 0.597750
vt 0.257940 0.102176
vt 0.020970 0.102176
vt 0.616607 0.979176
vt 0.616607 0.742206
vt 0.754878 0.112738
vt 0.968077 0.112737
vt 0.597203 0.967290
vt 0.597203 0.754091
vt 0.679107 0.121661
vt 0.465907 0.121661
vt 0.246054 0.121579
vt 0.032856 0.121579
vt 0.465908 0.606674
vt 0.679107 0.606674
vt 0.693193 0.624883
vt 0.451822 0.624883
vt 0.112190 0.967291
vt 0.112190 0.754092
vt 0.246054 0.606592
vt 0.032856 0.606592
vt 0.018770 0.624801
vt 0.260140 0.624801
vt 0.260140 0.631902
vt 0.018770 0.631902
vt 0.740792 0.094529
vt 0.982163 0.094529
vt 0.093981 0.981377
vt 0.093981 0.740006
vt 0.982163 0.087428
vt 0.740792 0.087429
vt 0.731315 0.077951
vt 0.991640 0.077951
vt 0.086880 0.981377
vt 0.086880 0.740006
vt 0.693193 0.631983
vt 0.451822 0.631983
vt 0.442345 0.641461
vt 0.702670 0.641460
vt 0.702670 0.656550
vt 0.442345 0.656550
vt 0.077403 0.990854
vt 0.077403 0.730529
vt 0.269617 0.641379
vt 0.009293 0.641379
vt 0.959887 0.031109
vt 0.763068 0.031109
vt 0.763068 0.002990
vt 0.959887 0.002990
vt 0.269617 0.656468
vt 0.009293 0.656468
vt 0.731315 0.062862
vt 0.991640 0.062862
vt 0.062314 0.990854
vt 0.062314 0.730529
vt 0.030561 0.959101
vt 0.030561 0.762282
vt 0.237864 0.688221
vt 0.041046 0.688221
vt 0.670917 0.688303
vt 0.474098 0.688303
vt 0.454996 0.248948
vt 0.454996 0.445767
vt 0.258177 0.445767
vt 0.258177 0.248948
vt 0.002442 0.959101
vt 0.002442 0.762282
vt 0.670917 0.716422
vt 0.474098 0.716422
vt 0.237864 0.716340
vt 0.041046 0.716340
vn 0.0000 -1.0000 0.0000
vn -1.0000 0.0000 0.0000
vn 0.0000 0.0000 -1.0000
vn 1.0000 0.0000 0.0000
vn 0.0000 0.0000 1.0000
vn 0.9997 0.0253 0.0000
vn 0.0000 1.0000 0.0000
vn 0.0000 0.8809 0.4733
vn -0.9997 0.0253 0.0000
vn 0.0000 0.0253 0.9997
vn 0.0000 0.0253 -0.9997
vn 0.7904 0.6125 0.0000
vn 0.0000 0.8809 -0.4733
vn 0.4733 0.8809 0.0000
vn -0.4733 0.8809 0.0000
vn -0.7904 0.6125 0.0000
vn 0.0000 0.6125 0.7904
vn 0.0000 0.6125 -0.7904
vn 0.0000 -0.7736 0.6337
vn 0.0000 -0.7736 -0.6337
vn 0.6337 -0.7736 0.0000
vn -0.6337 -0.7736 0.0000
usemtl Material
s off
f 2/1/1 4/2/1 3/3/1 1/4/1
f 1/5/2 9/6/2 10/7/2 2/8/2
f 2/9/3 10/10/3 11/11/3 4/12/3
f 4/13/4 11/14/4 12/15/4 3/16/4
f 3/17/5 12/18/5 9/19/5 1/20/5
f 7/21/6 6/22/6 15/23/6 16/24/6
f 8/25/7 5/26/7 10/7/7 9/6/7
f 5/27/7 6/28/7 11/11/7 10/10/7
f 6/22/7 7/21/7 12/15/7 11/14/7
f 7/29/7 8/30/7 9/19/7 12/18/7
f 13/31/8 16/32/8 20/33/8 17/34/8
f 5/26/9 8/25/9 13/35/9 14/36/9
f 8/30/10 7/29/10 16/32/10 13/31/10
f 6/28/11 5/27/11 14/37/11 15/38/11
f 20/39/12 19/40/12 23/41/12 24/42/12
f 15/38/13 14/37/13 18/43/13 19/44/13
f 16/24/14 15/23/14 19/40/14 20/39/14
f 14/36/15 13/35/15 17/45/15 18/46/15
f 24/42/4 23/41/4 27/47/4 28/48/4
f 18/46/16 17/45/16 21/49/16 22/50/16
f 17/34/17 20/33/17 24/51/17 21/52/17
f 19/44/18 18/43/18 22/53/18 23/54/18
f 25/55/19 28/56/19 32/57/19 29/58/19
f 22/50/2 21/49/2 25/59/2 26/60/2
f 21/52/5 24/51/5 28/56/5 25/55/5
f 23/54/3 22/53/3 26/61/3 27/62/3
f 31/63/3 30/64/3 34/65/3 35/66/3
f 27/62/20 26/61/20 30/64/20 31/63/20
f 28/48/21 27/47/21 31/67/21 32/68/21
f 26/60/22 25/59/22 29/69/22 30/70/22
f 36/71/1 35/72/1 39/73/1 40/74/1
f 32/68/4 31/67/4 35/72/4 36/71/4
f 30/70/2 29/69/2 33/75/2 34/76/2
f 29/58/5 32/57/5 36/77/5 33/78/5
f 37/79/5 40/80/5 48/81/5 45/82/5
f 34/76/1 33/75/1 37/83/1 38/84/1
f 33/78/1 36/77/1 40/80/1 37/79/1
f 35/66/1 34/65/1 38/85/1 39/86/1
f 44/87/4 43/88/4 51/89/4 52/90/4
f 39/86/3 38/85/3 46/91/3 47/92/3
f 40/74/4 39/73/4 47/93/4 48/94/4
f 38/84/2 37/83/2 45/95/2 46/96/2
f 41/97/7 42/98/7 46/96/7 45/95/7
f 42/99/7 43/100/7 47/92/7 46/91/7
f 43/88/7 44/87/7 48/94/7 47/93/7
f 44/101/7 41/102/7 45/82/7 48/81/7
f 49/103/7 52/104/7 51/105/7 50/106/7
f 42/98/2 41/97/2 49/107/2 50/108/2
f 41/102/5 44/101/5 52/109/5 49/110/5
f 43/100/3 42/99/3 50/111/3 51/112/3
