# Blender v2.90.1 OBJ File: ''
# www.blender.org
mtllib sphere.mtl
o Icosphere.001
v 0.000000 -1.000000 -0.000000
v 0.203181 -0.967950 0.147618
v -0.077607 -0.967950 0.238853
v 0.723607 -0.447220 0.525725
v 0.609547 -0.657519 0.442856
v 0.812729 -0.502301 0.295238
v -0.251147 -0.967949 -0.000000
v -0.077607 -0.967950 -0.238853
v 0.203181 -0.967950 -0.147618
v 0.860698 -0.251151 0.442858
v -0.276388 -0.447220 0.850649
v -0.029639 -0.502302 0.864184
v -0.155215 -0.251152 0.955422
v -0.894426 -0.447216 -0.000000
v -0.831051 -0.502299 0.238853
v -0.956626 -0.251149 0.147618
v -0.276388 -0.447220 -0.850649
v -0.483971 -0.502302 -0.716565
v -0.436007 -0.251152 -0.864188
v 0.723607 -0.447220 -0.525725
v 0.531941 -0.502302 -0.681712
v 0.687159 -0.251152 -0.681715
v 0.687159 -0.251152 0.681715
v -0.436007 -0.251152 0.864188
v -0.956626 -0.251149 -0.147618
v -0.155215 -0.251152 -0.955422
v 0.860698 -0.251151 -0.442858
v 0.276388 0.447220 0.850649
v 0.483971 0.502302 0.716565
v 0.232822 0.657519 0.716563
v -0.723607 0.447220 0.525725
v -0.531941 0.502302 0.681712
v -0.609547 0.657519 0.442856
v -0.723607 0.447220 -0.525725
v -0.812729 0.502301 -0.295238
v -0.609547 0.657519 -0.442856
v 0.276388 0.447220 -0.850649
v 0.029639 0.502302 -0.864184
v 0.232822 0.657519 -0.716563
v 0.894426 0.447216 0.000000
v 0.831051 0.502299 -0.238853
v 0.753442 0.657515 0.000000
v 0.251147 0.967949 0.000000
v 0.077607 0.967950 -0.238853
v 0.000000 1.000000 0.000000
v 0.525730 0.850652 0.000000
v 0.361800 0.894429 -0.262863
v 0.638194 0.723610 -0.262864
v 0.162456 0.850654 -0.499995
v 0.447209 0.723612 -0.525728
v 0.688189 0.525736 -0.499997
v 0.483971 0.502302 -0.716565
v -0.203181 0.967950 -0.147618
v -0.138197 0.894430 -0.425319
v -0.052790 0.723612 -0.688185
v -0.425323 0.850654 -0.309011
v -0.361804 0.723612 -0.587778
v -0.262869 0.525738 -0.809012
v -0.531941 0.502302 -0.681712
v -0.203181 0.967950 0.147618
v -0.447210 0.894429 0.000000
v -0.670817 0.723611 -0.162457
v -0.425323 0.850654 0.309011
v -0.670817 0.723611 0.162457
v -0.850648 0.525736 0.000000
v -0.812729 0.502301 0.295238
v 0.077607 0.967950 0.238853
v -0.138197 0.894430 0.425319
v -0.361804 0.723612 0.587778
v 0.162456 0.850654 0.499995
v -0.052790 0.723612 0.688185
v -0.262869 0.525738 0.809012
v 0.029639 0.502302 0.864184
v 0.361800 0.894429 0.262863
v 0.447209 0.723612 0.525728
v 0.638194 0.723610 0.262864
v 0.688189 0.525736 0.499997
v 0.831051 0.502299 0.238853
v 0.956626 0.251149 -0.147618
v 0.951058 0.000000 -0.309013
v 0.861804 0.276396 -0.425322
v 0.809019 0.000000 -0.587782
v 0.670821 0.276397 -0.688189
v 0.587786 0.000000 -0.809017
v 0.436007 0.251152 -0.864188
v 0.155215 0.251152 -0.955422
v 0.000000 0.000000 -1.000000
v -0.138199 0.276397 -0.951055
v -0.309016 0.000000 -0.951057
v -0.447215 0.276397 -0.850649
v -0.587786 0.000000 -0.809017
v -0.687159 0.251152 -0.681715
v -0.860698 0.251151 -0.442858
v -0.951058 0.000000 -0.309013
v -0.947213 0.276396 -0.162458
v -1.000000 0.000001 0.000000
v -0.947213 0.276397 0.162458
v -0.951058 -0.000000 0.309013
v -0.860698 0.251151 0.442858
v -0.687159 0.251152 0.681715
v -0.587786 -0.000000 0.809017
v -0.447216 0.276397 0.850648
v -0.309017 -0.000001 0.951056
v -0.138199 0.276397 0.951055
v 0.000000 -0.000000 1.000000
v 0.155215 0.251152 0.955422
v 0.436007 0.251152 0.864188
v 0.587786 -0.000000 0.809017
v 0.670820 0.276396 0.688190
v 0.809019 -0.000002 0.587783
v 0.861804 0.276394 0.425323
v 0.951058 -0.000000 0.309013
v 0.956626 0.251149 0.147618
v 0.309017 0.000000 -0.951056
v 0.447216 -0.276398 -0.850648
v 0.138199 -0.276398 -0.951055
v 0.262869 -0.525738 -0.809012
v -0.029639 -0.502302 -0.864184
v -0.809018 0.000000 -0.587783
v -0.670819 -0.276397 -0.688191
v -0.861803 -0.276396 -0.425324
v -0.688189 -0.525736 -0.499997
v -0.831051 -0.502299 -0.238853
v -0.809018 -0.000000 0.587783
v -0.861803 -0.276396 0.425324
v -0.670819 -0.276397 0.688191
v -0.688189 -0.525736 0.499997
v -0.483971 -0.502302 0.716565
v 0.309017 -0.000000 0.951056
v 0.138199 -0.276398 0.951055
v 0.447216 -0.276398 0.850648
v 0.262869 -0.525738 0.809012
v 0.531941 -0.502302 0.681712
v 1.000000 0.000000 0.000000
v 0.947213 -0.276396 0.162458
v 0.947213 -0.276396 -0.162458
v 0.850648 -0.525736 -0.000000
v 0.812729 -0.502301 -0.295238
v 0.609547 -0.657519 -0.442856
v 0.425323 -0.850654 -0.309011
v 0.361803 -0.723612 -0.587779
v 0.138197 -0.894429 -0.425321
v 0.052789 -0.723611 -0.688186
v -0.162456 -0.850654 -0.499995
v -0.232822 -0.657519 -0.716563
v -0.447211 -0.723612 -0.525727
v -0.361801 -0.894429 -0.262863
v -0.638195 -0.723609 -0.262863
v -0.525730 -0.850652 -0.000000
v -0.753442 -0.657515 -0.000000
v -0.638195 -0.723609 0.262864
v -0.361801 -0.894428 0.262864
v -0.447211 -0.723610 0.525729
v -0.162456 -0.850654 0.499995
v -0.232822 -0.657519 0.716563
v 0.670817 -0.723611 -0.162457
v 0.670818 -0.723610 0.162458
v 0.447211 -0.894428 0.000001
v 0.425323 -0.850654 0.309011
v 0.052790 -0.723612 0.688185
v 0.138199 -0.894429 0.425321
v 0.361805 -0.723611 0.587779
vt 0.995265 0.052478
vt 1.028608 0.011715
vt 1.083588 0.059284
vt 0.453155 0.103605
vt 0.439909 0.040427
vt 0.520395 0.083370
vt 1.022368 0.117269
vt 0.947554 0.105536
vt 0.900209 0.040300
vt 0.489945 0.171836
vt 0.228856 0.273016
vt 0.262879 0.197490
vt 0.268113 0.326276
vt 0.058801 0.479525
vt 0.094466 0.419018
vt 0.088545 0.565471
vt 0.882369 0.437739
vt 0.923050 0.441804
vt 0.894181 0.558858
vt 0.709579 0.205409
vt 0.756558 0.234362
vt 0.714756 0.315578
vt 0.428416 0.183568
vt 0.224386 0.391513
vt 0.041682 0.594057
vt 0.849403 0.511288
vt 0.667646 0.257593
vt 0.382369 0.562261
vt 0.423050 0.558196
vt 0.396280 0.678108
vt 0.209579 0.794591
vt 0.256558 0.765638
vt 0.239006 0.873817
vt 0.953155 0.896394
vt 1.020395 0.916630
vt 0.939909 0.959573
vt 0.728856 0.726984
vt 0.762879 0.802510
vt 0.703116 0.816866
vt 0.558801 0.520475
vt 0.594466 0.580982
vt 0.550714 0.642908
vt 0.522368 0.882730
vt 0.583588 0.940716
vt 0.495266 0.947522
vt 0.539333 0.775082
vt 0.589146 0.853053
vt 0.592366 0.721088
vt 0.658476 0.896464
vt 0.646235 0.784903
vt 0.638443 0.645452
vt 0.685752 0.696955
vt 0.528608 0.988285
vt 0.687732 0.969217
vt 0.741880 0.901068
vt 0.861263 0.996041
vt 0.822852 0.953418
vt 0.815828 0.866412
vt 0.886384 0.897648
vt 0.400209 0.959700
vt 1.276277 0.990109
vt 1.070985 0.974309
vt 0.276277 0.990109
vt 0.297151 0.936203
vt 0.070985 0.974309
vt 0.191085 0.942851
vt 0.020395 0.916630
vt 0.104411 0.906149
vt 0.170019 0.859459
vt 0.447554 0.894464
vt 0.371975 0.886857
vt 0.302765 0.839599
vt 0.416577 0.799643
vt 0.357558 0.767805
vt 0.305787 0.709752
vt 0.348946 0.635166
vt 0.479319 0.802151
vt 0.446728 0.683099
vt 0.502091 0.670186
vt 0.470929 0.548630
vt 0.518591 0.534729
vt 0.588545 0.434529
vt 0.625568 0.338879
vt 0.632040 0.491762
vt 0.673880 0.394401
vt 0.679918 0.555577
vt 0.719689 0.460261
vt 0.724386 0.608487
vt 0.768113 0.673724
vt 0.810089 0.596822
vt 0.812439 0.743537
vt 0.857974 0.654156
vt 0.869679 0.795888
vt 0.909171 0.696400
vt 0.928416 0.816432
vt 0.989945 0.828164
vt 1.019234 0.720959
vt 1.052583 0.829691
vt 0.073887 0.700872
vt 0.019234 0.720959
vt 0.052583 0.829691
vt 0.117506 0.798232
vt 0.125568 0.661121
vt 0.167646 0.742407
vt 0.214756 0.684422
vt 0.219689 0.539739
vt 0.260674 0.631165
vt 0.264518 0.469989
vt 0.308021 0.559371
vt 0.310089 0.403178
vt 0.349403 0.488712
vt 0.394181 0.441142
vt 0.409171 0.303600
vt 0.441285 0.422313
vt 0.463491 0.280580
vt 0.493819 0.409400
vt 0.519234 0.279040
vt 0.541682 0.405943
vt 0.764518 0.530010
vt 0.760674 0.368834
vt 0.808021 0.440628
vt 0.805787 0.290248
vt 0.848946 0.364834
vt 0.963491 0.719419
vt 0.941285 0.577686
vt 0.993818 0.590599
vt 1.041682 0.594057
vt 0.970929 0.451370
vt 1.018591 0.465270
vt 0.018591 0.465270
vt 0.173880 0.605598
vt 0.132040 0.508237
vt 0.179918 0.444422
vt 0.138443 0.354548
vt 0.185752 0.303045
vt 0.357975 0.345844
vt 0.312439 0.256463
vt 0.369679 0.204111
vt 0.315828 0.133588
vt 0.386384 0.102352
vt 0.573887 0.299129
vt 0.552583 0.170309
vt 0.617506 0.201768
vt 0.604411 0.093851
vt 0.670019 0.140541
vt 0.739006 0.126183
vt 0.797151 0.063797
vt 0.802765 0.160402
vt 0.871975 0.113144
vt 0.857558 0.232196
vt 0.916577 0.200357
vt 0.896280 0.321892
vt 0.946729 0.316901
vt 0.979319 0.197849
vt 1.002091 0.329815
vt 1.039333 0.224918
vt 0.039333 0.224918
vt 0.050714 0.357092
vt 0.002091 0.329815
vt 0.092366 0.278913
vt 0.022368 0.117269
vt 0.089146 0.146948
vt 0.146235 0.215098
vt 0.083588 0.059284
vt 0.158476 0.103536
vt 0.203116 0.183134
vt 0.691085 0.057149
vt 0.570985 0.025691
vt 0.776276 0.009892
vt 0.361263 0.003959
vt 0.241880 0.098932
vt 0.187733 0.030782
vt 0.322852 0.046582
vt 0.028608 0.011715
vn -0.0000 -1.0000 -0.0000
vn 0.2141 -0.9643 0.1556
vn -0.0818 -0.9643 0.2517
vn 0.7236 -0.4472 0.5257
vn 0.6020 -0.6680 0.4374
vn 0.8162 -0.5044 0.2818
vn -0.2646 -0.9643 0.0000
vn -0.0818 -0.9643 -0.2517
vn 0.2141 -0.9643 -0.1556
vn 0.8667 -0.2397 0.4374
vn -0.2764 -0.4472 0.8506
vn -0.0159 -0.5044 0.8633
vn -0.1482 -0.2397 0.9595
vn -0.8944 -0.4472 -0.0000
vn -0.8260 -0.5044 0.2517
vn -0.9583 -0.2398 0.1556
vn -0.2764 -0.4472 -0.8506
vn -0.4946 -0.5044 -0.7078
vn -0.4441 -0.2398 -0.8633
vn 0.7236 -0.4472 -0.5257
vn 0.5203 -0.5044 -0.6891
vn 0.6838 -0.2397 -0.6891
vn 0.6838 -0.2397 0.6891
vn -0.4441 -0.2397 0.8633
vn -0.9583 -0.2398 -0.1556
vn -0.1482 -0.2397 -0.9595
vn 0.8667 -0.2397 -0.4374
vn 0.2764 0.4472 0.8506
vn 0.4946 0.5044 0.7078
vn 0.2299 0.6680 0.7077
vn -0.7236 0.4472 0.5257
vn -0.5203 0.5044 0.6891
vn -0.6021 0.6680 0.4374
vn -0.7236 0.4472 -0.5257
vn -0.8162 0.5044 -0.2819
vn -0.6021 0.6680 -0.4374
vn 0.2764 0.4472 -0.8506
vn 0.0158 0.5044 -0.8633
vn 0.2300 0.6680 -0.7077
vn 0.8944 0.4472 0.0000
vn 0.8260 0.5044 -0.2517
vn 0.7442 0.6680 0.0000
vn 0.2646 0.9643 0.0000
vn 0.0818 0.9643 -0.2517
vn 0.0000 1.0000 0.0000
vn 0.5257 0.8507 0.0000
vn 0.3746 0.8863 -0.2722
vn 0.6252 0.7314 -0.2722
vn 0.1625 0.8507 -0.5000
vn 0.4521 0.7314 -0.5105
vn 0.6882 0.5257 -0.5000
vn 0.4946 0.5044 -0.7077
vn -0.2141 0.9643 -0.1556
vn -0.1431 0.8863 -0.4404
vn -0.0656 0.7314 -0.6787
vn -0.4253 0.8507 -0.3090
vn -0.3458 0.7314 -0.5877
vn -0.2629 0.5257 -0.8090
vn -0.5203 0.5044 -0.6891
vn -0.2141 0.9643 0.1556
vn -0.4630 0.8863 0.0000
vn -0.6658 0.7314 -0.1473
vn -0.4253 0.8507 0.3090
vn -0.6658 0.7314 0.1473
vn -0.8506 0.5257 -0.0000
vn -0.8162 0.5044 0.2818
vn 0.0818 0.9643 0.2517
vn -0.1431 0.8863 0.4404
vn -0.3458 0.7314 0.5877
vn 0.1625 0.8507 0.5000
vn -0.0656 0.7314 0.6787
vn -0.2629 0.5257 0.8090
vn 0.0158 0.5044 0.8633
vn 0.3746 0.8863 0.2722
vn 0.4521 0.7314 0.5105
vn 0.6252 0.7314 0.2722
vn 0.6882 0.5257 0.5000
vn 0.8260 0.5044 0.2517
vn 0.9583 0.2397 -0.1556
vn 0.9511 0.0000 -0.3090
vn 0.8568 0.2684 -0.4404
vn 0.8089 0.0178 -0.5877
vn 0.6836 0.2684 -0.6787
vn 0.5878 0.0000 -0.8090
vn 0.4441 0.2397 -0.8633
vn 0.1482 0.2397 -0.9595
vn 0.0000 0.0000 -1.0000
vn -0.1541 0.2684 -0.9509
vn -0.3090 0.0177 -0.9509
vn -0.4343 0.2684 -0.8599
vn -0.5878 0.0000 -0.8090
vn -0.6838 0.2397 -0.6891
vn -0.8667 0.2398 -0.4374
vn -0.9511 -0.0000 -0.3090
vn -0.9520 0.2684 -0.1473
vn -0.9998 0.0178 -0.0000
vn -0.9520 0.2684 0.1473
vn -0.9511 -0.0000 0.3090
vn -0.8667 0.2397 0.4374
vn -0.6838 0.2398 0.6891
vn -0.5878 0.0000 0.8090
vn -0.4343 0.2684 0.8599
vn -0.3090 0.0178 0.9509
vn -0.1541 0.2684 0.9509
vn -0.0000 -0.0000 1.0000
vn 0.1482 0.2397 0.9595
vn 0.4441 0.2398 0.8633
vn 0.5878 -0.0000 0.8090
vn 0.6836 0.2684 0.6787
vn 0.8089 0.0178 0.5877
vn 0.8568 0.2684 0.4404
vn 0.9511 0.0000 0.3090
vn 0.9583 0.2397 0.1556
vn 0.3090 -0.0178 -0.9509
vn 0.4343 -0.2684 -0.8599
vn 0.1541 -0.2684 -0.9509
vn 0.2629 -0.5257 -0.8090
vn -0.0159 -0.5044 -0.8633
vn -0.8089 -0.0178 -0.5877
vn -0.6836 -0.2684 -0.6787
vn -0.8568 -0.2684 -0.4404
vn -0.6882 -0.5257 -0.5000
vn -0.8259 -0.5044 -0.2517
vn -0.8089 -0.0178 0.5877
vn -0.8568 -0.2684 0.4404
vn -0.6836 -0.2684 0.6787
vn -0.6882 -0.5257 0.5000
vn -0.4946 -0.5044 0.7078
vn 0.3090 -0.0178 0.9509
vn 0.1541 -0.2684 0.9509
vn 0.4343 -0.2684 0.8599
vn 0.2629 -0.5257 0.8090
vn 0.5202 -0.5044 0.6891
vn 0.9998 -0.0178 -0.0000
vn 0.9520 -0.2684 0.1473
vn 0.9520 -0.2684 -0.1474
vn 0.8506 -0.5257 -0.0000
vn 0.8162 -0.5044 -0.2818
vn 0.6021 -0.6680 -0.4374
vn 0.4253 -0.8507 -0.3090
vn 0.3458 -0.7314 -0.5877
vn 0.1431 -0.8863 -0.4404
vn 0.0656 -0.7314 -0.6787
vn -0.1625 -0.8507 -0.5000
vn -0.2300 -0.6680 -0.7078
vn -0.4521 -0.7314 -0.5105
vn -0.3746 -0.8863 -0.2722
vn -0.6252 -0.7314 -0.2722
vn -0.5257 -0.8507 0.0000
vn -0.7441 -0.6680 -0.0000
vn -0.6252 -0.7314 0.2722
vn -0.3746 -0.8863 0.2722
vn -0.4521 -0.7314 0.5105
vn -0.1625 -0.8507 0.5000
vn -0.2300 -0.6680 0.7078
vn 0.6658 -0.7314 -0.1473
vn 0.6658 -0.7314 0.1473
vn 0.4630 -0.8863 -0.0000
vn 0.4253 -0.8507 0.3090
vn 0.0656 -0.7314 0.6787
vn 0.1431 -0.8863 0.4404
vn 0.3458 -0.7314 0.5877
usemtl None.002
s 1
f 1/1/1 2/2/2 3/3/3
f 4/4/4 5/5/5 6/6/6
f 1/1/1 3/3/3 7/7/7
f 1/1/1 7/7/7 8/8/8
f 1/1/1 8/8/8 9/9/9
f 4/4/4 6/6/6 10/10/10
f 11/11/11 12/12/12 13/13/13
f 14/14/14 15/15/15 16/16/16
f 17/17/17 18/18/18 19/19/19
f 20/20/20 21/21/21 22/22/22
f 4/4/4 10/10/10 23/23/23
f 11/11/11 13/13/13 24/24/24
f 14/14/14 16/16/16 25/25/25
f 17/17/17 19/19/19 26/26/26
f 20/20/20 22/22/22 27/27/27
f 28/28/28 29/29/29 30/30/30
f 31/31/31 32/32/32 33/33/33
f 34/34/34 35/35/35 36/36/36
f 37/37/37 38/38/38 39/39/39
f 40/40/40 41/41/41 42/42/42
f 43/43/43 44/44/44 45/45/45
f 46/46/46 47/47/47 43/43/43
f 42/42/42 48/48/48 46/46/46
f 43/43/43 47/47/47 44/44/44
f 47/47/47 49/49/49 44/44/44
f 46/46/46 48/48/48 47/47/47
f 48/48/48 50/50/50 47/47/47
f 47/47/47 50/50/50 49/49/49
f 50/50/50 39/39/39 49/49/49
f 42/42/42 41/41/41 48/48/48
f 41/41/41 51/51/51 48/48/48
f 48/48/48 51/51/51 50/50/50
f 51/51/51 52/52/52 50/50/50
f 50/50/50 52/52/52 39/39/39
f 52/52/52 37/37/37 39/39/39
f 44/44/44 53/53/53 45/45/45
f 49/49/49 54/54/54 44/44/44
f 39/39/39 55/55/55 49/49/49
f 44/44/44 54/54/54 53/53/53
f 54/54/54 56/56/56 53/53/53
f 49/49/49 55/55/55 54/54/54
f 55/55/55 57/57/57 54/54/54
f 54/54/54 57/57/57 56/56/56
f 57/57/57 36/36/36 56/56/56
f 39/39/39 38/38/38 55/55/55
f 38/38/38 58/58/58 55/55/55
f 55/55/55 58/58/58 57/57/57
f 58/58/58 59/59/59 57/57/57
f 57/57/57 59/59/59 36/36/36
f 59/59/59 34/34/34 36/36/36
f 53/53/53 60/60/60 45/45/45
f 56/56/56 61/61/61 53/53/53
f 36/36/36 62/62/62 56/56/56
f 53/53/53 61/63/61 60/60/60
f 61/63/61 63/64/63 60/60/60
f 56/56/56 62/62/62 61/61/61
f 62/65/62 64/66/64 61/63/61
f 61/63/61 64/66/64 63/64/63
f 64/66/64 33/33/33 63/64/63
f 36/36/36 35/35/35 62/62/62
f 35/67/35 65/68/65 62/65/62
f 62/65/62 65/68/65 64/66/64
f 65/68/65 66/69/66 64/66/64
f 64/66/64 66/69/66 33/33/33
f 66/69/66 31/31/31 33/33/33
f 60/60/60 67/70/67 45/45/45
f 63/64/63 68/71/68 60/60/60
f 33/33/33 69/72/69 63/64/63
f 60/60/60 68/71/68 67/70/67
f 68/71/68 70/73/70 67/70/67
f 63/64/63 69/72/69 68/71/68
f 69/72/69 71/74/71 68/71/68
f 68/71/68 71/74/71 70/73/70
f 71/74/71 30/30/30 70/73/70
f 33/33/33 32/32/32 69/72/69
f 32/32/32 72/75/72 69/72/69
f 69/72/69 72/75/72 71/74/71
f 72/75/72 73/76/73 71/74/71
f 71/74/71 73/76/73 30/30/30
f 73/76/73 28/28/28 30/30/30
f 67/70/67 43/43/43 45/45/45
f 70/73/70 74/77/74 67/70/67
f 30/30/30 75/78/75 70/73/70
f 67/70/67 74/77/74 43/43/43
f 74/77/74 46/46/46 43/43/43
f 70/73/70 75/78/75 74/77/74
f 75/78/75 76/79/76 74/77/74
f 74/77/74 76/79/76 46/46/46
f 76/79/76 42/42/42 46/46/46
f 30/30/30 29/29/29 75/78/75
f 29/29/29 77/80/77 75/78/75
f 75/78/75 77/80/77 76/79/76
f 77/80/77 78/81/78 76/79/76
f 76/79/76 78/81/78 42/42/42
f 78/81/78 40/40/40 42/42/42
f 79/82/79 41/41/41 40/40/40
f 80/83/80 81/84/81 79/82/79
f 27/27/27 82/85/82 80/83/80
f 79/82/79 81/84/81 41/41/41
f 81/84/81 51/51/51 41/41/41
f 80/83/80 82/85/82 81/84/81
f 82/85/82 83/86/83 81/84/81
f 81/84/81 83/86/83 51/51/51
f 83/86/83 52/52/52 51/51/51
f 27/27/27 22/22/22 82/85/82
f 22/22/22 84/87/84 82/85/82
f 82/85/82 84/87/84 83/86/83
f 84/87/84 85/88/85 83/86/83
f 83/86/83 85/88/85 52/52/52
f 85/88/85 37/37/37 52/52/52
f 86/89/86 38/38/38 37/37/37
f 87/90/87 88/91/88 86/89/86
f 26/26/26 89/92/89 87/90/87
f 86/89/86 88/91/88 38/38/38
f 88/91/88 58/58/58 38/38/38
f 87/90/87 89/92/89 88/91/88
f 89/92/89 90/93/90 88/91/88
f 88/91/88 90/93/90 58/58/58
f 90/93/90 59/59/59 58/58/58
f 26/26/26 19/19/19 89/92/89
f 19/19/19 91/94/91 89/92/89
f 89/92/89 91/94/91 90/93/90
f 91/94/91 92/95/92 90/93/90
f 90/93/90 92/95/92 59/59/59
f 92/95/92 34/34/34 59/59/59
f 93/96/93 35/35/35 34/34/34
f 94/97/94 95/98/95 93/96/93
f 25/25/25 96/99/96 94/100/94
f 93/96/93 95/98/95 35/35/35
f 95/101/95 65/68/65 35/67/35
f 94/100/94 96/99/96 95/101/95
f 96/99/96 97/102/97 95/101/95
f 95/101/95 97/102/97 65/68/65
f 97/102/97 66/69/66 65/68/65
f 25/25/25 16/16/16 96/99/96
f 16/16/16 98/103/98 96/99/96
f 96/99/96 98/103/98 97/102/97
f 98/103/98 99/104/99 97/102/97
f 97/102/97 99/104/99 66/69/66
f 99/104/99 31/31/31 66/69/66
f 100/105/100 32/32/32 31/31/31
f 101/106/101 102/107/102 100/105/100
f 24/24/24 103/108/103 101/106/101
f 100/105/100 102/107/102 32/32/32
f 102/107/102 72/75/72 32/32/32
f 101/106/101 103/108/103 102/107/102
f 103/108/103 104/109/104 102/107/102
f 102/107/102 104/109/104 72/75/72
f 104/109/104 73/76/73 72/75/72
f 24/24/24 13/13/13 103/108/103
f 13/13/13 105/110/105 103/108/103
f 103/108/103 105/110/105 104/109/104
f 105/110/105 106/111/106 104/109/104
f 104/109/104 106/111/106 73/76/73
f 106/111/106 28/28/28 73/76/73
f 107/112/107 29/29/29 28/28/28
f 108/113/108 109/114/109 107/112/107
f 23/23/23 110/115/110 108/113/108
f 107/112/107 109/114/109 29/29/29
f 109/114/109 77/80/77 29/29/29
f 108/113/108 110/115/110 109/114/109
f 110/115/110 111/116/111 109/114/109
f 109/114/109 111/116/111 77/80/77
f 111/116/111 78/81/78 77/80/77
f 23/23/23 10/10/10 110/115/110
f 10/10/10 112/117/112 110/115/110
f 110/115/110 112/117/112 111/116/111
f 112/117/112 113/118/113 111/116/111
f 111/116/111 113/118/113 78/81/78
f 113/118/113 40/40/40 78/81/78
f 85/88/85 86/89/86 37/37/37
f 84/87/84 114/119/114 85/88/85
f 22/22/22 115/120/115 84/87/84
f 85/88/85 114/119/114 86/89/86
f 114/119/114 87/90/87 86/89/86
f 84/87/84 115/120/115 114/119/114
f 115/120/115 116/121/116 114/119/114
f 114/119/114 116/121/116 87/90/87
f 116/121/116 26/26/26 87/90/87
f 22/22/22 21/21/21 115/120/115
f 21/21/21 117/122/117 115/120/115
f 115/120/115 117/122/117 116/121/116
f 117/122/117 118/123/118 116/121/116
f 116/121/116 118/123/118 26/26/26
f 118/123/118 17/17/17 26/26/26
f 92/95/92 93/96/93 34/34/34
f 91/94/91 119/124/119 92/95/92
f 19/19/19 120/125/120 91/94/91
f 92/95/92 119/124/119 93/96/93
f 119/124/119 94/97/94 93/96/93
f 91/94/91 120/125/120 119/124/119
f 120/125/120 121/126/121 119/124/119
f 119/124/119 121/126/121 94/97/94
f 121/126/121 25/127/25 94/97/94
f 19/19/19 18/18/18 120/125/120
f 18/18/18 122/128/122 120/125/120
f 120/125/120 122/128/122 121/126/121
f 122/128/122 123/129/123 121/126/121
f 121/126/121 123/129/123 25/127/25
f 123/130/123 14/14/14 25/25/25
f 99/104/99 100/105/100 31/31/31
f 98/103/98 124/131/124 99/104/99
f 16/16/16 125/132/125 98/103/98
f 99/104/99 124/131/124 100/105/100
f 124/131/124 101/106/101 100/105/100
f 98/103/98 125/132/125 124/131/124
f 125/132/125 126/133/126 124/131/124
f 124/131/124 126/133/126 101/106/101
f 126/133/126 24/24/24 101/106/101
f 16/16/16 15/15/15 125/132/125
f 15/15/15 127/134/127 125/132/125
f 125/132/125 127/134/127 126/133/126
f 127/134/127 128/135/128 126/133/126
f 126/133/126 128/135/128 24/24/24
f 128/135/128 11/11/11 24/24/24
f 106/111/106 107/112/107 28/28/28
f 105/110/105 129/136/129 106/111/106
f 13/13/13 130/137/130 105/110/105
f 106/111/106 129/136/129 107/112/107
f 129/136/129 108/113/108 107/112/107
f 105/110/105 130/137/130 129/136/129
f 130/137/130 131/138/131 129/136/129
f 129/136/129 131/138/131 108/113/108
f 131/138/131 23/23/23 108/113/108
f 13/13/13 12/12/12 130/137/130
f 12/12/12 132/139/132 130/137/130
f 130/137/130 132/139/132 131/138/131
f 132/139/132 133/140/133 131/138/131
f 131/138/131 133/140/133 23/23/23
f 133/140/133 4/4/4 23/23/23
f 113/118/113 79/82/79 40/40/40
f 112/117/112 134/141/134 113/118/113
f 10/10/10 135/142/135 112/117/112
f 113/118/113 134/141/134 79/82/79
f 134/141/134 80/83/80 79/82/79
f 112/117/112 135/142/135 134/141/134
f 135/142/135 136/143/136 134/141/134
f 134/141/134 136/143/136 80/83/80
f 136/143/136 27/27/27 80/83/80
f 10/10/10 6/6/6 135/142/135
f 6/6/6 137/144/137 135/142/135
f 135/142/135 137/144/137 136/143/136
f 137/144/137 138/145/138 136/143/136
f 136/143/136 138/145/138 27/27/27
f 138/145/138 20/20/20 27/27/27
f 139/146/139 21/21/21 20/20/20
f 140/147/140 141/148/141 139/146/139
f 9/9/9 142/149/142 140/147/140
f 139/146/139 141/148/141 21/21/21
f 141/148/141 117/122/117 21/21/21
f 140/147/140 142/149/142 141/148/141
f 142/149/142 143/150/143 141/148/141
f 141/148/141 143/150/143 117/122/117
f 143/150/143 118/123/118 117/122/117
f 9/9/9 8/8/8 142/149/142
f 8/8/8 144/151/144 142/149/142
f 142/149/142 144/151/144 143/150/143
f 144/151/144 145/152/145 143/150/143
f 143/150/143 145/152/145 118/123/118
f 145/152/145 17/17/17 118/123/118
f 145/152/145 18/18/18 17/17/17
f 144/151/144 146/153/146 145/152/145
f 8/8/8 147/154/147 144/151/144
f 145/152/145 146/153/146 18/18/18
f 146/153/146 122/128/122 18/18/18
f 144/151/144 147/154/147 146/153/146
f 147/154/147 148/155/148 146/153/146
f 146/153/146 148/155/148 122/128/122
f 148/155/148 123/129/123 122/128/122
f 8/8/8 7/7/7 147/154/147
f 7/7/7 149/156/149 147/154/147
f 147/154/147 149/156/149 148/155/148
f 149/157/149 150/158/150 148/159/148
f 148/159/148 150/158/150 123/130/123
f 150/158/150 14/14/14 123/130/123
f 150/158/150 15/15/15 14/14/14
f 149/157/149 151/160/151 150/158/150
f 7/161/7 152/162/152 149/157/149
f 150/158/150 151/160/151 15/15/15
f 151/160/151 127/134/127 15/15/15
f 149/157/149 152/162/152 151/160/151
f 152/162/152 153/163/153 151/160/151
f 151/160/151 153/163/153 127/134/127
f 153/163/153 128/135/128 127/134/127
f 7/161/7 3/164/3 152/162/152
f 3/164/3 154/165/154 152/162/152
f 152/162/152 154/165/154 153/163/153
f 154/165/154 155/166/155 153/163/153
f 153/163/153 155/166/155 128/135/128
f 155/166/155 11/11/11 128/135/128
f 138/145/138 139/146/139 20/20/20
f 137/144/137 156/167/156 138/145/138
f 6/6/6 157/168/157 137/144/137
f 138/145/138 156/167/156 139/146/139
f 156/167/156 140/147/140 139/146/139
f 137/144/137 157/168/157 156/167/156
f 157/168/157 158/169/158 156/167/156
f 156/167/156 158/169/158 140/147/140
f 158/169/158 9/9/9 140/147/140
f 6/6/6 5/5/5 157/168/157
f 5/5/5 159/170/159 157/168/157
f 157/168/157 159/170/159 158/169/158
f 159/170/159 2/2/2 158/169/158
f 158/169/158 2/2/2 9/9/9
f 2/2/2 1/1/1 9/9/9
f 155/166/155 12/12/12 11/11/11
f 154/165/154 160/171/160 155/166/155
f 3/164/3 161/172/161 154/165/154
f 155/166/155 160/171/160 12/12/12
f 160/171/160 132/139/132 12/12/12
f 154/165/154 161/172/161 160/171/160
f 161/172/161 162/173/162 160/171/160
f 160/171/160 162/173/162 132/139/132
f 162/173/162 133/140/133 132/139/132
f 3/164/3 2/174/2 161/172/161
f 2/174/2 159/170/159 161/172/161
f 161/172/161 159/170/159 162/173/162
f 159/170/159 5/5/5 162/173/162
f 162/173/162 5/5/5 133/140/133
f 5/5/5 4/4/4 133/140/133
