# Blender v2.91.2 OBJ File: ''
# www.blender.org
mtllib fallen_tree_2.mtl
o Cylinder.003
v -0.246551 -0.709331 4.231076
v -0.338842 -0.791090 -4.210143
v 0.391788 -0.696171 4.223969
v 0.299497 -0.777930 -4.217249
v 0.833808 -0.235486 4.214674
v 0.741517 -0.317245 -4.226544
v 0.820579 0.402861 4.208636
v 0.728288 0.321102 -4.232583
v 0.359851 0.844935 4.209392
v 0.267560 0.763177 -4.231827
v -0.278488 0.831775 4.216498
v -0.370779 0.750017 -4.224720
v -0.720508 0.371091 4.225793
v -0.812799 0.289332 -4.215425
v -0.707280 -0.267257 4.231831
v -0.799570 -0.349015 -4.209387
v -0.298285 -0.791086 2.207938
v -0.328633 -0.905943 0.213588
v -0.425387 -0.828546 -2.101386
v 0.309717 -0.813817 -2.120082
v 0.406471 -0.891214 0.194892
v 0.436819 -0.776357 2.189242
v 0.818466 -0.284080 -2.159427
v 0.915220 -0.361477 0.155546
v 0.945568 -0.246620 2.149897
v 0.802841 0.450353 -2.196374
v 0.899595 0.372956 0.118599
v 0.929943 0.487813 2.112950
v 0.271996 0.959261 -2.209280
v 0.368750 0.881864 0.105694
v 0.399098 0.996720 2.100044
v -0.463108 0.944532 -2.190583
v -0.366354 0.867135 0.124390
v -0.336006 0.981992 2.118740
v -0.971857 0.414795 -2.151238
v -0.875103 0.337398 0.163735
v -0.844755 0.452254 2.158086
v -0.956232 -0.319638 -2.114291
v -0.859479 -0.397035 0.200682
v -0.829131 -0.282178 2.195033
v -0.404323 -0.907343 -3.700728
v 0.330910 -0.892302 -3.711784
v 0.839949 -0.361902 -3.730309
v 0.824606 0.373154 -3.745453
v 0.293868 0.882282 -3.748344
v -0.441366 0.867241 -3.737289
v -0.950405 0.336842 -3.718763
v -0.935061 -0.398215 -3.703619
v 0.434443 -0.816965 3.586865
v 0.943454 -0.286630 3.566321
v 0.928083 0.448367 3.549063
v 0.397335 0.957473 3.545201
v -0.337886 0.942462 3.556998
v -0.846897 0.412127 3.577542
v -0.831526 -0.322869 3.594800
v -0.300778 -0.831975 3.598661
v -0.303990 -0.856552 4.233130
v 0.455277 -0.840899 4.224677
v 0.362986 -0.922657 -4.216542
v -0.396281 -0.938310 -4.208089
v 0.981033 -0.292941 4.213621
v 0.888743 -0.374700 -4.227597
v 0.965298 0.466335 4.206439
v 0.873008 0.384576 -4.234779
v 0.417289 0.992156 4.207338
v 0.324999 0.910397 -4.233881
v -0.341977 0.976503 4.215791
v -0.434268 0.894745 -4.225428
v -0.867734 0.428546 4.226846
v -0.960024 0.346787 -4.214372
v -0.851999 -0.330730 4.234028
v -0.944290 -0.412489 -4.207190
v -0.192766 0.753687 -4.226702
v 0.071660 0.759138 -4.229646
v -0.239978 0.898750 -4.227591
v 0.069087 0.905122 -4.231032
v -0.075103 0.776474 -2.075418
v -0.037830 0.875497 -3.743356
v -0.194361 0.872294 -3.741003
v -0.142644 0.897031 -3.271205
vt 0.625945 0.611972
vt 0.625945 0.612423
vt 0.624295 0.612423
vt 0.624295 0.611972
vt 0.622646 0.612423
vt 0.622646 0.611972
vt 0.620997 0.612423
vt 0.620997 0.611972
vt 0.619348 0.612423
vt 0.619348 0.611972
vt 0.618792 0.612423
vt 0.618604 0.611972
vt 0.617699 0.611972
vt 0.617699 0.612423
vt 0.616050 0.612423
vt 0.616050 0.611972
vt 0.614167 0.604410
vt 0.613388 0.602528
vt 0.619984 0.602528
vt 0.620764 0.604410
vt 0.614401 0.612423
vt 0.614401 0.611972
vt 0.612751 0.612423
vt 0.612751 0.611972
vt 0.616050 0.605190
vt 0.622646 0.605190
vt 0.614401 0.606393
vt 0.614401 0.607475
vt 0.612751 0.607475
vt 0.612751 0.606393
vt 0.614401 0.609124
vt 0.612751 0.609124
vt 0.614401 0.610774
vt 0.612751 0.610774
vt 0.616050 0.606393
vt 0.616050 0.607475
vt 0.616050 0.609124
vt 0.616050 0.610774
vt 0.617699 0.606393
vt 0.617699 0.607475
vt 0.617699 0.609124
vt 0.617699 0.610774
vt 0.619348 0.606393
vt 0.619348 0.607475
vt 0.619348 0.609124
vt 0.619348 0.610774
vt 0.620997 0.606393
vt 0.620997 0.607475
vt 0.620997 0.609124
vt 0.620997 0.610774
vt 0.622646 0.606393
vt 0.622646 0.607475
vt 0.622646 0.609124
vt 0.622646 0.610774
vt 0.624295 0.606393
vt 0.624295 0.607475
vt 0.624295 0.609124
vt 0.624295 0.610774
vt 0.625945 0.606393
vt 0.625945 0.607475
vt 0.625945 0.609124
vt 0.625945 0.610774
vt 0.618384 0.611607
vt 0.618253 0.611972
vt 0.625945 0.605826
vt 0.624295 0.605826
vt 0.622646 0.605826
vt 0.620997 0.605826
vt 0.619348 0.605826
vt 0.617699 0.605826
vt 0.616050 0.605826
vt 0.614401 0.605826
vt 0.612751 0.605826
vt 0.624529 0.604410
vt 0.622646 0.605694
vt 0.624885 0.604767
vt 0.617932 0.604410
vt 0.618289 0.604767
vt 0.616050 0.605694
vt 0.625308 0.602528
vt 0.625813 0.602528
vt 0.618712 0.602528
vt 0.619216 0.602528
vt 0.624529 0.600645
vt 0.624885 0.600289
vt 0.617932 0.600645
vt 0.618289 0.600289
vt 0.622646 0.599866
vt 0.622646 0.599361
vt 0.616050 0.599866
vt 0.616050 0.599361
vt 0.620764 0.600645
vt 0.620407 0.600289
vt 0.615472 0.600105
vt 0.615295 0.599674
vt 0.619480 0.602528
vt 0.614167 0.600645
vt 0.612883 0.602528
vt 0.613811 0.600289
vt 0.620407 0.604767
vt 0.613811 0.604767
vt 0.614692 0.600428
vt 0.616652 0.600313
vt 0.614384 0.600052
vt 0.618121 0.612423
vn 0.0213 -0.9979 0.0613
vn 0.7199 -0.6885 0.0878
vn 0.9949 0.0222 0.0980
vn 0.6897 0.7190 0.0854
vn -0.0197 0.9982 0.0564
vn -0.7209 0.6925 0.0282
vn 0.9997 0.0206 -0.0111
vn -0.9996 -0.0205 0.0189
vn -0.6920 -0.7212 0.0331
vn 0.6923 0.7215 -0.0146
vn -0.6918 -0.7218 -0.0223
vn -0.6918 -0.7203 0.0520
vn -0.6921 -0.7218 0.0048
vn -0.9998 -0.0212 -0.0022
vn -0.9997 -0.0204 0.0164
vn -0.9990 -0.0192 0.0411
vn -0.7207 0.6930 0.0183
vn -0.7220 0.6913 -0.0288
vn -0.7183 0.6937 0.0532
vn -0.0196 0.9994 0.0273
vn -0.0215 0.9981 -0.0572
vn -0.0192 0.9992 0.0342
vn 0.6918 0.7218 0.0206
vn 0.6918 0.7203 -0.0520
vn 0.6921 0.7218 -0.0048
vn 0.9998 0.0212 0.0020
vn 0.9997 0.0204 -0.0164
vn 0.9990 0.0192 -0.0411
vn 0.7207 -0.6930 -0.0187
vn 0.7220 -0.6913 0.0288
vn 0.7183 -0.6937 -0.0532
vn 0.0196 -0.9994 -0.0292
vn 0.0215 -0.9981 0.0572
vn 0.0192 -0.9992 -0.0342
vn -0.6921 -0.7213 0.0264
vn -0.9997 -0.0215 -0.0124
vn -0.7219 0.6906 -0.0444
vn -0.0212 0.9985 -0.0502
vn 0.6921 0.7213 -0.0262
vn 0.9997 0.0215 0.0128
vn 0.7219 -0.6906 0.0439
vn 0.0212 -0.9985 0.0495
vn 0.0200 -0.9991 -0.0384
vn 0.7199 -0.6923 -0.0490
vn 0.9982 0.0198 -0.0574
vn 0.6912 0.7203 -0.0587
vn -0.0212 0.9984 -0.0517
vn -0.7215 0.6912 -0.0404
vn -0.9993 -0.0213 -0.0319
vn -0.6919 -0.7213 -0.0312
vn 0.0109 0.0097 0.9999
vn -0.0109 -0.0097 -0.9999
vn 0.7216 -0.6923 -0.0012
vn 0.0207 -0.9997 0.0095
vn -0.6923 -0.7215 0.0146
vn -0.9997 -0.0206 0.0111
vn -0.7216 0.6923 0.0012
vn -0.0207 0.9997 -0.0095
vn 0.9486 0.3083 -0.0722
vn -0.9764 -0.0193 -0.2152
vn -0.0197 0.9982 0.0560
vn -0.7094 -0.7025 -0.0576
vn 0.9936 0.0917 -0.0659
usemtl wood.007
s off
f 41/1/1 60/2/1 59/3/1 42/4/1
f 42/4/2 59/3/2 62/5/2 43/6/2
f 43/6/3 62/5/3 64/7/3 44/8/3
f 44/8/4 64/7/4 66/9/4 45/10/4
f 45/10/5 66/9/5 76/11/5 78/12/5
f 46/13/6 68/14/6 70/15/6 47/16/6
f 16/17/7 14/18/7 13/19/7 15/20/7
f 47/16/8 70/15/8 72/21/8 48/22/8
f 48/22/9 72/21/9 60/23/9 41/24/9
f 2/25/10 16/17/10 15/20/10 1/26/10
f 55/27/11 40/28/11 17/29/11 56/30/11
f 40/28/12 39/31/12 18/32/12 17/29/12
f 39/31/13 38/33/13 19/34/13 18/32/13
f 54/35/14 37/36/14 40/28/14 55/27/14
f 37/36/15 36/37/15 39/31/15 40/28/15
f 36/37/16 35/38/16 38/33/16 39/31/16
f 53/39/17 34/40/17 37/36/17 54/35/17
f 34/40/18 33/41/18 36/37/18 37/36/18
f 33/41/19 32/42/19 35/38/19 36/37/19
f 52/43/20 31/44/20 34/40/20 53/39/20
f 31/44/21 30/45/21 33/41/21 34/40/21
f 30/45/22 29/46/22 32/42/22 33/41/22
f 51/47/23 28/48/23 31/44/23 52/43/23
f 28/48/24 27/49/24 30/45/24 31/44/24
f 27/49/25 26/50/25 29/46/25 30/45/25
f 50/51/26 25/52/26 28/48/26 51/47/26
f 25/52/27 24/53/27 27/49/27 28/48/27
f 24/53/28 23/54/28 26/50/28 27/49/28
f 49/55/29 22/56/29 25/52/29 50/51/29
f 22/56/30 21/57/30 24/53/30 25/52/30
f 21/57/31 20/58/31 23/54/31 24/53/31
f 56/59/32 17/60/32 22/56/32 49/55/32
f 17/60/33 18/61/33 21/57/33 22/56/33
f 18/61/34 19/62/34 20/58/34 21/57/34
f 38/33/35 48/22/35 41/24/35 19/34/35
f 35/38/36 47/16/36 48/22/36 38/33/36
f 32/42/37 46/13/37 47/16/37 35/38/37
f 29/46/38 45/10/38 78/12/38 80/63/38 79/64/38 46/13/38 32/42/38
f 26/50/39 44/8/39 45/10/39 29/46/39
f 23/54/40 43/6/40 44/8/40 26/50/40
f 20/58/41 42/4/41 43/6/41 23/54/41
f 19/62/42 41/1/42 42/4/42 20/58/42
f 57/65/43 56/59/43 49/55/43 58/66/43
f 58/66/44 49/55/44 50/51/44 61/67/44
f 61/67/45 50/51/45 51/47/45 63/68/45
f 63/68/46 51/47/46 52/43/46 65/69/46
f 65/69/47 52/43/47 53/39/47 67/70/47
f 67/70/48 53/39/48 54/35/48 69/71/48
f 69/71/49 54/35/49 55/27/49 71/72/49
f 71/72/50 55/27/50 56/30/50 57/73/50
f 3/74/51 1/26/51 57/75/51 58/76/51
f 2/25/52 4/77/52 59/78/52 60/79/52
f 5/80/51 3/74/51 58/76/51 61/81/51
f 4/77/52 6/82/52 62/83/52 59/78/52
f 7/84/51 5/80/51 61/81/51 63/85/51
f 6/82/52 8/86/52 64/87/52 62/83/52
f 9/88/51 7/84/51 63/85/51 65/89/51
f 8/86/52 10/90/52 66/91/52 64/87/52
f 11/92/51 9/88/51 65/89/51 67/93/51
f 10/90/52 74/94/52 76/95/52 66/91/52
f 13/19/51 11/92/51 67/93/51 69/96/51
f 12/97/52 14/18/52 70/98/52 68/99/52
f 15/20/51 13/19/51 69/96/51 71/100/51
f 14/18/52 16/17/52 72/101/52 70/98/52
f 1/26/51 15/20/51 71/100/51 57/75/51
f 16/17/52 2/25/52 60/79/52 72/101/52
f 14/18/53 12/97/53 11/92/53 13/19/53
f 12/97/54 73/102/54 77/103/54 74/94/54 10/90/54 9/88/54 11/92/54
f 10/90/55 8/86/55 7/84/55 9/88/55
f 8/86/56 6/82/56 5/80/56 7/84/56
f 6/82/57 4/77/57 3/74/57 5/80/57
f 4/77/58 2/25/58 1/26/58 3/74/58
f 75/104/52 73/102/52 12/97/52 68/99/52
f 75/105/59 79/64/59 73/102/59
f 76/11/60 74/94/60 78/12/60
f 79/64/61 75/105/61 68/14/61 46/13/61
f 74/94/62 77/103/62 80/63/62 78/12/62
f 73/102/63 79/64/63 80/63/63 77/103/63
