# Blender v2.91.2 OBJ File: ''
# www.blender.org
mtllib spruce_1.mtl
o Plane.003_Plane.001
v 3.765762 -0.033550 -1.124649
v 3.774820 -0.033550 1.054895
v 5.945305 -0.033550 -1.133707
v 5.954364 -0.033550 1.045836
v 4.853093 -0.033550 -1.716435
v 3.183034 -0.033550 -0.032437
v 4.867032 -0.033550 1.637622
v 6.537091 -0.033550 -0.046376
v 4.860063 -0.033550 -0.039406
v 4.302466 7.151112 -0.181572
v 4.315703 7.684382 1.087489
v 5.589318 7.281260 -0.204362
v 5.602554 7.814530 1.064699
v 4.942326 7.072501 -0.534903
v 3.962355 7.382680 0.459099
v 4.962695 7.893141 1.418030
v 5.942666 7.582962 0.424028
v 4.703887 16.258240 -0.033306
v 4.506464 13.714936 -0.331330
v 4.513123 13.983232 0.307154
v 5.153897 13.780416 -0.342796
v 5.160557 14.048712 0.295687
v 4.828386 13.675385 -0.509096
v 4.335349 13.831442 -0.008999
v 4.838634 14.088262 0.473454
v 5.331672 13.932205 -0.026644
v 4.683331 15.891086 0.328155
v 5.115304 16.259266 -0.010836
v 5.094748 15.892113 0.350626
v 4.915133 16.357677 -0.119463
v 4.582757 16.074385 0.141370
v 4.883501 15.792671 0.436783
v 5.215878 16.075964 0.175949
v 4.934682 16.812525 0.784070
v 1.983707 4.891808 -2.462519
v 2.086649 4.969117 3.065095
v 7.520782 4.889789 -2.565171
v 7.623724 4.967099 2.962443
v 4.736236 4.878776 -3.373454
v 1.174097 4.930777 0.317252
v 4.871195 4.980131 3.873378
v 8.433334 4.928130 0.182672
v 4.803716 4.929453 0.249962
v 3.696738 8.933249 -0.743985
v 3.737134 8.963587 1.425110
v 5.869547 8.932458 -0.784267
v 5.909942 8.962794 1.384829
v 4.776860 8.928136 -1.101446
v 3.379038 8.948541 0.346827
v 4.829820 8.967910 1.742289
v 6.227642 8.947503 0.294016
v 4.803340 8.948022 0.320421
v 2.417392 7.086716 -2.114182
v 2.476507 7.197186 2.514195
v 7.026629 7.199872 -2.176389
v 7.085745 7.310342 2.451987
v 4.712818 7.126115 -2.865052
v 1.730160 7.124355 0.209680
v 4.790320 7.270944 3.202857
v 7.772978 7.272705 0.128125
v 4.751569 7.198529 0.168903
v 3.750463 10.486121 -0.472645
v 3.773661 10.529469 1.343579
v 5.559178 10.530523 -0.497057
v 5.582376 10.573873 1.319169
v 4.651213 10.501579 -0.767295
v 3.480786 10.500889 0.439263
v 4.681626 10.558412 1.613818
v 5.852054 10.559103 0.407260
v 4.666420 10.529996 0.423261
v 2.630899 9.120502 -1.680591
v 2.657207 9.284003 2.088302
v 6.387475 9.203914 -1.712947
v 6.413783 9.367415 2.055946
v 4.505095 9.136783 -2.282876
v 2.059860 9.189281 0.208887
v 4.539586 9.351135 2.658231
v 6.984820 9.298636 0.166467
v 4.522341 9.243958 0.187677
v 3.666303 12.339775 -0.380421
v 3.676627 12.403934 1.098534
v 5.140425 12.372507 -0.393118
v 5.150748 12.436666 1.085837
v 4.401758 12.346165 -0.616764
v 3.442221 12.366764 0.361031
v 4.415293 12.430278 1.322180
v 5.374829 12.409677 0.344385
v 4.408525 12.388220 0.352708
v 2.630109 12.850612 -1.426062
v 2.716410 12.680642 1.938987
v 5.980120 12.869073 -1.512215
v 6.066421 12.699103 1.852834
v 4.291694 12.886272 -1.992443
v 2.152294 12.762755 0.269861
v 4.404836 12.663440 2.419215
v 6.544236 12.786958 0.156912
v 4.348265 12.774855 0.213386
v 3.663377 15.476275 -0.371412
v 3.697242 15.409575 0.949070
v 4.977958 15.483519 -0.405220
v 5.011823 15.416820 0.915262
v 4.315401 15.490269 -0.593667
v 3.475877 15.441800 0.294086
v 4.359799 15.402827 1.137516
v 5.199323 15.451297 0.249763
v 4.337600 15.446547 0.271924
v 3.031681 14.643223 -0.976095
v 3.163335 14.276154 1.782143
v 5.772469 14.726478 -1.098836
v 5.904125 14.359403 1.659402
v 4.381601 14.741936 -1.466405
v 2.671283 14.446743 0.422112
v 4.554204 14.260690 2.149711
v 6.264522 14.555885 0.261195
v 4.467903 14.501313 0.341654
v 3.818147 18.074381 -0.099531
v 3.869810 17.930334 0.982832
v 4.893662 18.107050 -0.147696
v 4.945325 17.963003 0.934666
v 4.347871 18.113115 -0.291934
v 3.676723 17.997280 0.449140
v 4.415602 17.924271 1.127069
v 5.086749 18.040112 0.385995
v 3.985182 20.702040 0.357690
v 1.983707 2.355047 -2.462519
v 2.086649 2.432357 3.065095
v 7.520782 2.353029 -2.565171
v 7.623724 2.430338 2.962443
v 4.736236 2.342016 -3.373454
v 1.174097 2.394017 0.317252
v 4.871195 2.443371 3.873378
v 8.433334 2.391370 0.182672
v 4.803716 2.392693 0.249962
v 3.696738 6.396489 -0.743985
v 3.737134 6.426826 1.425110
v 5.869547 6.395697 -0.784267
v 5.909942 6.426034 1.384829
v 4.776860 6.391375 -1.101446
v 3.379038 6.411780 0.346827
v 4.829820 6.431149 1.742289
v 6.227642 6.410742 0.294016
v 4.803340 6.411262 0.320421
v 2.510886 11.028187 -1.183706
v 2.956872 11.148346 2.152268
v 5.830834 11.052499 -1.629540
v 6.276821 11.172656 1.706434
v 4.101504 11.021657 -1.925406
v 2.217589 11.084485 0.553613
v 4.686203 11.179186 2.448135
v 6.570118 11.116358 -0.030885
v 4.393853 11.100420 0.261364
v 3.620860 13.540385 -0.438856
v 3.795870 13.587535 0.870216
v 4.923644 13.549923 -0.613806
v 5.098654 13.597075 0.695266
v 4.245036 13.537823 -0.729908
v 3.505766 13.562475 0.242887
v 4.474478 13.599638 0.986317
v 5.213747 13.574981 0.013523
v 4.359757 13.568728 0.128205
vt 0.286114 0.781833
vt 0.286441 0.779217
vt 0.285794 0.780041
vt 0.285287 0.781730
vt 0.286898 0.781931
vt 0.286839 0.780233
vt 0.286420 0.783543
vt 0.285793 0.784402
vt 0.285372 0.783472
vt 0.296588 0.783037
vt 0.296428 0.784059
vt 0.306735 0.785066
vt 0.306804 0.784531
vt 0.297218 0.783094
vt 0.297383 0.782039
vt 0.307400 0.784046
vt 0.307331 0.784590
vt 0.296965 0.782027
vt 0.307055 0.784014
vt 0.296829 0.784121
vt 0.307074 0.785112
vt 0.297319 0.781473
vt 0.296480 0.784638
vt 0.310439 0.784544
vt 0.310188 0.784878
vt 0.311198 0.784949
vt 0.311096 0.784591
vt 0.310292 0.785237
vt 0.306817 0.785372
vt 0.310581 0.785445
vt 0.307314 0.783743
vt 0.311908 0.785011
vt 0.310808 0.784380
vt 0.310948 0.785281
vt 0.089969 0.911727
vt 0.090871 0.905842
vt 0.089645 0.906843
vt 0.088602 0.911473
vt 0.091178 0.911951
vt 0.091571 0.907638
vt 0.090256 0.916043
vt 0.089102 0.917386
vt 0.088261 0.916085
vt 0.096020 0.912505
vt 0.095644 0.912426
vt 0.096049 0.910636
vt 0.096427 0.910173
vt 0.096378 0.912579
vt 0.096600 0.910820
vt 0.095993 0.914283
vt 0.095620 0.914800
vt 0.095426 0.914233
vt 0.261345 0.904436
vt 0.262270 0.899518
vt 0.261378 0.900431
vt 0.260428 0.904289
vt 0.262171 0.904569
vt 0.262666 0.900949
vt 0.261315 0.908040
vt 0.260451 0.909189
vt 0.259951 0.908115
vt 0.266394 0.905232
vt 0.266145 0.905191
vt 0.266516 0.903692
vt 0.266797 0.903283
vt 0.266632 0.905271
vt 0.266879 0.903801
vt 0.266277 0.906707
vt 0.265997 0.907154
vt 0.265898 0.906694
vt 0.096437 0.913022
vt 0.097228 0.908992
vt 0.096650 0.909815
vt 0.095900 0.912971
vt 0.096929 0.913070
vt 0.097402 0.910094
vt 0.096242 0.915962
vt 0.095668 0.916939
vt 0.095428 0.916082
vt 0.101320 0.913853
vt 0.101197 0.913848
vt 0.101490 0.912617
vt 0.101663 0.912258
vt 0.101440 0.913858
vt 0.101669 0.912658
vt 0.101156 0.915046
vt 0.100982 0.915430
vt 0.100965 0.915070
vt 0.269918 0.906221
vt 0.270657 0.902569
vt 0.270043 0.903267
vt 0.269324 0.906100
vt 0.270469 0.906334
vt 0.270892 0.903610
vt 0.269803 0.908958
vt 0.269198 0.909786
vt 0.268906 0.908939
vt 0.274277 0.906813
vt 0.274113 0.906775
vt 0.274394 0.905671
vt 0.274591 0.905369
vt 0.274436 0.906850
vt 0.274636 0.905754
vt 0.274164 0.907921
vt 0.273966 0.908243
vt 0.273913 0.907889
vt 0.093061 0.922016
vt 0.093780 0.919007
vt 0.093135 0.919521
vt 0.092424 0.921820
vt 0.093660 0.922201
vt 0.094059 0.919922
vt 0.092992 0.924361
vt 0.092357 0.924968
vt 0.092031 0.924180
vt 0.103468 0.924228
vt 0.099048 0.921965
vt 0.099254 0.921740
vt 0.099311 0.922082
vt 0.099117 0.923000
vt 0.098844 0.923883
vt 0.098574 0.923801
vt 0.098638 0.924123
vt 0.098768 0.922870
vt 0.086276 0.911253
vt 0.087092 0.905442
vt 0.085717 0.906411
vt 0.084691 0.910972
vt 0.087679 0.911501
vt 0.087969 0.907234
vt 0.086770 0.915539
vt 0.085490 0.916843
vt 0.084473 0.915533
vt 0.092151 0.912008
vt 0.091685 0.911919
vt 0.092082 0.910154
vt 0.092521 0.909707
vt 0.092596 0.912094
vt 0.092771 0.910354
vt 0.092217 0.913774
vt 0.091787 0.914274
vt 0.091516 0.913705
vt 0.267252 0.905797
vt 0.268003 0.902221
vt 0.267611 0.902610
vt 0.266947 0.905299
vt 0.267533 0.906255
vt 0.268024 0.903511
vt 0.266918 0.908758
vt 0.266512 0.909317
vt 0.266440 0.908198
vt 0.271220 0.906371
vt 0.271166 0.906187
vt 0.271418 0.905142
vt 0.271529 0.904959
vt 0.271272 0.906548
vt 0.271493 0.905444
vt 0.271028 0.907564
vt 0.270912 0.907773
vt 0.270942 0.907315
vn 0.0000 -1.0000 0.0000
vn -0.4839 -0.0049 -0.8751
vn 0.4918 0.1409 0.8592
vn 0.4520 0.0113 -0.8919
vn -0.4826 0.1226 0.8672
vn -0.4693 0.1499 -0.8702
vn 0.8841 0.0394 0.4656
vn -0.8686 0.1254 -0.4793
vn 0.8638 0.1013 -0.4936
vn -0.8787 0.0603 0.4735
vn -0.4675 0.0296 0.8835
vn 0.4475 0.1376 -0.8836
vn 0.4806 0.0190 0.8767
vn 0.4438 -0.0020 0.8961
vn 0.4590 0.1188 -0.8805
vn -0.4635 0.0314 0.8855
vn -0.8711 0.0676 0.4864
vn 0.8941 0.1167 0.4324
vn -0.8806 0.0166 -0.4735
vn 0.8609 0.0469 -0.5066
vn -0.8853 0.0844 0.4573
vn 0.8594 -0.0877 0.5037
vn 0.5660 0.7314 -0.3804
vn -0.5158 0.7697 -0.3763
vn -0.7675 -0.1718 0.6176
vn -0.4519 0.1405 -0.8810
vn 0.8616 0.0065 0.5075
vn -0.8625 0.1261 -0.4901
vn 0.8740 0.0845 -0.4784
vn 0.4791 -0.3044 0.8233
vn 0.9066 0.4139 -0.0820
vn -0.8678 0.4893 -0.0868
vn -0.0406 0.7021 0.7109
vn -0.0001 -0.9999 0.0140
vn 0.0001 0.9999 -0.0140
vn 0.8371 0.4673 -0.2845
vn -0.8440 0.4612 0.2739
vn -0.2500 0.4543 0.8550
vn 0.2439 0.4727 -0.8468
vn 0.2818 0.4545 0.8450
vn -0.2749 0.4726 -0.8373
vn 0.8534 0.4616 0.2421
vn -0.8473 0.4668 -0.2533
vn 0.0249 -0.9994 0.0235
vn -0.0249 0.9994 -0.0235
vn 0.8180 0.5020 -0.2808
vn -0.8631 0.4294 0.2659
vn -0.2720 0.4115 0.8699
vn 0.2290 0.5168 -0.8249
vn 0.2747 0.4258 0.8621
vn -0.2764 0.5036 -0.8185
vn 0.8464 0.4741 0.2426
vn -0.8502 0.4584 -0.2589
vn 0.0225 -0.9988 0.0432
vn -0.0226 0.9988 -0.0432
vn -0.0225 0.9988 -0.0432
vn 0.8429 0.4528 -0.2907
vn -0.8891 0.3742 0.2637
vn -0.2811 0.3724 0.8845
vn 0.2435 0.4530 -0.8576
vn 0.2784 0.3917 0.8769
vn -0.2789 0.4354 -0.8560
vn 0.8665 0.4343 0.2461
vn -0.8756 0.3943 -0.2790
vn 0.0042 -0.9987 -0.0506
vn -0.0042 0.9987 0.0506
vn 0.8563 0.4416 -0.2677
vn -0.8537 0.4190 0.3092
vn -0.2460 0.4074 0.8795
vn 0.2477 0.4567 -0.8544
vn 0.2864 0.4099 0.8660
vn -0.2962 0.4541 -0.8403
vn 0.8643 0.4270 0.2656
vn -0.8731 0.4334 -0.2235
vn 0.0241 -0.9908 -0.1330
vn 0.8859 0.3696 0.2803
vn 0.2489 0.2684 -0.9306
vn -0.3474 0.1821 -0.9198
vn -0.9290 0.1178 0.3509
vn 0.9042 0.3159 -0.2875
vn -0.8995 0.2520 0.3570
vn -0.2446 0.2521 0.9363
vn 0.2453 0.3211 -0.9147
vn 0.3118 0.2664 0.9120
vn -0.3447 0.3057 -0.8875
vn 0.9131 0.2987 0.2773
vn -0.9413 0.2681 -0.2050
vn 0.3066 0.2979 0.9040
vn 0.8892 0.3650 -0.2759
vn -0.9666 0.1023 -0.2348
vn -0.2468 0.2230 0.9431
vn 0.0119 -0.9993 0.0344
vn -0.0119 0.9993 -0.0344
vn 0.8034 0.4503 -0.3895
vn -0.8101 0.4658 0.3560
vn -0.1546 0.5008 0.8516
vn 0.1460 0.4177 -0.8968
vn 0.3666 0.5043 0.7818
vn -0.3833 0.4141 -0.8256
vn 0.8690 0.4770 0.1313
vn -0.8836 0.4388 -0.1634
usemtl wood
s off
f 9/1/1 8/2/1 4/3/1 7/4/1
f 5/5/1 3/6/1 8/2/1 9/1/1
f 1/7/1 5/5/1 9/1/1 6/8/1
f 6/8/1 9/1/1 7/4/1 2/9/1
f 14/10/2 10/11/2 19/12/2 23/13/2
f 16/14/3 13/15/3 22/16/3 25/17/3
f 12/18/4 14/10/4 23/13/4 21/19/4
f 11/20/5 16/14/5 25/17/5 20/21/5
f 5/5/6 1/7/6 10/11/6 14/10/6
f 4/3/7 8/2/7 17/22/7 13/15/7
f 1/7/8 6/8/8 15/23/8 10/11/8
f 8/2/9 3/6/9 12/18/9 17/22/9
f 6/8/10 2/9/10 11/20/10 15/23/10
f 2/9/11 7/4/11 16/14/11 11/20/11
f 3/6/12 5/5/12 14/10/12 12/18/12
f 7/4/13 4/3/13 13/15/13 16/14/13
f 25/17/14 22/16/14 29/24/14 32/25/14
f 21/19/15 23/13/15 30/26/15 28/27/15
f 20/21/16 25/17/16 32/25/16 27/28/16
f 24/29/17 20/21/17 27/28/17 31/30/17
f 13/15/18 17/22/18 26/31/18 22/16/18
f 10/11/19 15/23/19 24/29/19 19/12/19
f 17/22/20 12/18/20 21/19/20 26/31/20
f 15/23/21 11/20/21 20/21/21 24/29/21
f 34/32/22 29/24/22 33/33/22
f 34/32/23 28/27/23 30/26/23
f 18/34/24 34/32/24 30/26/24
f 31/30/25 32/25/25 34/32/25
f 23/13/26 19/12/26 18/34/26 30/26/26
f 22/16/27 26/31/27 33/33/27 29/24/27
f 19/12/28 24/29/28 31/30/28 18/34/28
f 26/31/29 21/19/29 28/27/29 33/33/29
f 34/32/30 32/25/30 29/24/30
f 34/32/31 33/33/31 28/27/31
f 18/34/32 31/30/32 34/32/32
f 31/30/33 27/28/33 32/25/33
f 43/35/34 42/36/34 38/37/34 41/38/34
f 39/39/34 37/40/34 42/36/34 43/35/34
f 35/41/34 39/39/34 43/35/34 40/42/34
f 40/42/34 43/35/34 41/38/34 36/43/34
f 52/44/35 50/45/35 47/46/35 51/47/35
f 48/48/35 52/44/35 51/47/35 46/49/35
f 44/50/35 49/51/35 52/44/35 48/48/35
f 49/51/35 45/52/35 50/45/35 52/44/35
f 42/36/36 37/40/36 46/49/36 51/47/36
f 40/42/37 36/43/37 45/52/37 49/51/37
f 36/43/38 41/38/38 50/45/38 45/52/38
f 37/40/39 39/39/39 48/48/39 46/49/39
f 41/38/40 38/37/40 47/46/40 50/45/40
f 39/39/41 35/41/41 44/50/41 48/48/41
f 38/37/42 42/36/42 51/47/42 47/46/42
f 35/41/43 40/42/43 49/51/43 44/50/43
f 61/53/44 60/54/44 56/55/44 59/56/44
f 57/57/44 55/58/44 60/54/44 61/53/44
f 53/59/44 57/57/44 61/53/44 58/60/44
f 58/60/44 61/53/44 59/56/44 54/61/44
f 70/62/45 68/63/45 65/64/45 69/65/45
f 66/66/45 70/62/45 69/65/45 64/67/45
f 62/68/45 67/69/45 70/62/45 66/66/45
f 67/69/45 63/70/45 68/63/45 70/62/45
f 60/54/46 55/58/46 64/67/46 69/65/46
f 58/60/47 54/61/47 63/70/47 67/69/47
f 54/61/48 59/56/48 68/63/48 63/70/48
f 55/58/49 57/57/49 66/66/49 64/67/49
f 59/56/50 56/55/50 65/64/50 68/63/50
f 57/57/51 53/59/51 62/68/51 66/66/51
f 56/55/52 60/54/52 69/65/52 65/64/52
f 53/59/53 58/60/53 67/69/53 62/68/53
f 79/71/54 78/72/54 74/73/54 77/74/54
f 75/75/54 73/76/54 78/72/54 79/71/54
f 71/77/54 75/75/54 79/71/54 76/78/54
f 76/78/54 79/71/54 77/74/54 72/79/54
f 88/80/55 86/81/55 83/82/55 87/83/55
f 84/84/56 88/80/56 87/83/56 82/85/56
f 80/86/55 85/87/55 88/80/55 84/84/55
f 85/87/56 81/88/56 86/81/56 88/80/56
f 78/72/57 73/76/57 82/85/57 87/83/57
f 76/78/58 72/79/58 81/88/58 85/87/58
f 72/79/59 77/74/59 86/81/59 81/88/59
f 73/76/60 75/75/60 84/84/60 82/85/60
f 77/74/61 74/73/61 83/82/61 86/81/61
f 75/75/62 71/77/62 80/86/62 84/84/62
f 74/73/63 78/72/63 87/83/63 83/82/63
f 71/77/64 76/78/64 85/87/64 80/86/64
f 97/89/65 96/90/65 92/91/65 95/92/65
f 93/93/65 91/94/65 96/90/65 97/89/65
f 89/95/65 93/93/65 97/89/65 94/96/65
f 94/96/65 97/89/65 95/92/65 90/97/65
f 106/98/66 104/99/66 101/100/66 105/101/66
f 102/102/66 106/98/66 105/101/66 100/103/66
f 98/104/66 103/105/66 106/98/66 102/102/66
f 103/105/66 99/106/66 104/99/66 106/98/66
f 96/90/67 91/94/67 100/103/67 105/101/67
f 94/96/68 90/97/68 99/106/68 103/105/68
f 90/97/69 95/92/69 104/99/69 99/106/69
f 91/94/70 93/93/70 102/102/70 100/103/70
f 95/92/71 92/91/71 101/100/71 104/99/71
f 93/93/72 89/95/72 98/104/72 102/102/72
f 92/91/73 96/90/73 105/101/73 101/100/73
f 89/95/74 94/96/74 103/105/74 98/104/74
f 115/107/75 114/108/75 110/109/75 113/110/75
f 111/111/75 109/112/75 114/108/75 115/107/75
f 107/113/75 111/111/75 115/107/75 112/114/75
f 112/114/75 115/107/75 113/110/75 108/115/75
f 124/116/76 119/117/76 123/118/76
f 124/116/77 118/119/77 120/120/77
f 116/121/78 124/116/78 120/120/78
f 117/122/79 124/116/79 121/123/79
f 114/108/80 109/112/80 118/119/80 123/118/80
f 112/114/81 108/115/81 117/122/81 121/123/81
f 108/115/82 113/110/82 122/124/82 117/122/82
f 109/112/83 111/111/83 120/120/83 118/119/83
f 113/110/84 110/109/84 119/117/84 122/124/84
f 111/111/85 107/113/85 116/121/85 120/120/85
f 110/109/86 114/108/86 123/118/86 119/117/86
f 107/113/87 112/114/87 121/123/87 116/121/87
f 124/116/88 122/124/88 119/117/88
f 124/116/89 123/118/89 118/119/89
f 116/121/90 121/123/90 124/116/90
f 117/122/91 122/124/91 124/116/91
f 133/125/34 132/126/34 128/127/34 131/128/34
f 129/129/34 127/130/34 132/126/34 133/125/34
f 125/131/34 129/129/34 133/125/34 130/132/34
f 130/132/34 133/125/34 131/128/34 126/133/34
f 142/134/35 140/135/35 137/136/35 141/137/35
f 138/138/35 142/134/35 141/137/35 136/139/35
f 134/140/35 139/141/35 142/134/35 138/138/35
f 139/141/35 135/142/35 140/135/35 142/134/35
f 132/126/36 127/130/36 136/139/36 141/137/36
f 130/132/37 126/133/37 135/142/37 139/141/37
f 126/133/38 131/128/38 140/135/38 135/142/38
f 127/130/39 129/129/39 138/138/39 136/139/39
f 131/128/40 128/127/40 137/136/40 140/135/40
f 129/129/41 125/131/41 134/140/41 138/138/41
f 128/127/42 132/126/42 141/137/42 137/136/42
f 125/131/43 130/132/43 139/141/43 134/140/43
f 151/143/92 150/144/92 146/145/92 149/146/92
f 147/147/92 145/148/92 150/144/92 151/143/92
f 143/149/92 147/147/92 151/143/92 148/150/92
f 148/150/92 151/143/92 149/146/92 144/151/92
f 160/152/93 158/153/93 155/154/93 159/155/93
f 156/156/93 160/152/93 159/155/93 154/157/93
f 152/158/93 157/159/93 160/152/93 156/156/93
f 157/159/93 153/160/93 158/153/93 160/152/93
f 150/144/94 145/148/94 154/157/94 159/155/94
f 148/150/95 144/151/95 153/160/95 157/159/95
f 144/151/96 149/146/96 158/153/96 153/160/96
f 145/148/97 147/147/97 156/156/97 154/157/97
f 149/146/98 146/145/98 155/154/98 158/153/98
f 147/147/99 143/149/99 152/158/99 156/156/99
f 146/145/100 150/144/100 159/155/100 155/154/100
f 143/149/101 148/150/101 157/159/101 152/158/101
