# Blender v2.91.2 OBJ File: ''
# www.blender.org
mtllib spruce_4.mtl
o Plane
v -1.089781 0.000000 1.089781
v 1.089781 0.000000 1.089781
v -1.089781 0.000000 -1.089781
v 1.089781 0.000000 -1.089781
v -1.677043 0.000000 0.000000
v 0.000000 0.000000 1.677043
v 1.677043 0.000000 0.000000
v 0.000000 0.000000 -1.677043
v 0.000000 0.000000 0.000000
v -0.144482 2.973663 0.557000
v 1.124624 3.194379 0.549038
v -0.161924 3.027530 -0.729935
v 1.107182 3.248246 -0.737897
v -0.495151 2.941127 -0.084322
v 0.494770 3.069507 0.899771
v 1.457851 3.280782 -0.096574
v 0.467929 3.152402 -1.080667
v -0.007263 7.844804 0.195909
v -0.293390 5.690368 0.352383
v 0.345115 5.801413 0.348377
v -0.302166 5.717469 -0.295093
v 0.336340 5.828514 -0.299099
v -0.469817 5.673998 0.029724
v 0.028227 5.738588 0.524836
v 0.512766 5.844883 0.023560
v 0.014723 5.780293 -0.471552
v 0.270507 7.757561 0.213885
v 0.012055 7.846338 -0.095149
v 0.289824 7.759096 -0.077173
v -0.072446 7.869078 0.045537
v 0.126417 7.800769 0.283320
v 0.355008 7.734822 0.073200
v 0.156144 7.803130 -0.164583
v 0.322418 8.984497 -0.353682
v -1.616690 3.588404 2.010335
v 2.425457 4.016941 1.980047
v -1.646346 3.580836 -2.054462
v 2.395802 4.009372 -2.084750
v -2.260120 3.517977 -0.017353
v 0.408995 3.803850 2.627315
v 3.039231 4.079799 -0.057062
v 0.370116 3.793927 -2.701730
v 0.389556 3.798888 -0.037208
v -0.656425 6.156353 0.763614
v 0.929757 6.324516 0.751729
v -0.668062 6.153383 -0.831456
v 0.918120 6.321546 -0.843342
v -0.908914 6.128717 -0.032073
v 0.138476 6.240897 1.005724
v 1.170609 6.349183 -0.047655
v 0.123219 6.237003 -1.085451
v 0.130848 6.238949 -0.039864
v -0.940593 5.502167 1.200969
v 1.611228 5.772703 1.181848
v -0.959315 5.497388 -1.365150
v 1.592506 5.767925 -1.384271
v -1.346792 5.457706 -0.079117
v 0.338229 5.638178 1.590471
v 1.998705 5.812387 -0.104185
v 0.313684 5.631914 -1.773773
v 0.325957 5.635046 -0.091651
v -0.442384 8.142038 0.412802
v 0.558978 8.248199 0.405298
v -0.449731 8.140163 -0.594172
v 0.551631 8.246325 -0.601675
v -0.601781 8.124592 -0.089518
v 0.059439 8.195411 0.565646
v 0.711028 8.263772 -0.099355
v 0.049808 8.192952 -0.754520
v 0.054624 8.194182 -0.094437
v -0.763557 7.325297 0.824332
v 1.044200 7.516950 0.810787
v -0.776820 7.321912 -0.993554
v 1.030937 7.513565 -1.007100
v -1.051316 7.293800 -0.082504
v 0.142384 7.421650 1.100263
v 1.318696 7.545062 -0.100263
v 0.124996 7.417212 -1.283030
v 0.133690 7.419431 -0.091384
v -0.045372 9.261115 0.265980
v 0.665986 9.207713 0.260664
v -0.050730 9.260743 -0.447379
v 0.660627 9.207341 -0.452694
v -0.158675 9.269235 -0.089873
v 0.311140 9.234473 0.374258
v 0.773931 9.199223 -0.096841
v 0.304115 9.233985 -0.560972
v 0.482807 10.140279 -0.120072
vt 0.298403 0.771008
vt 0.297568 0.773632
vt 0.300647 0.772907
vt 0.302770 0.771291
vt 0.294011 0.770724
vt 0.295054 0.772551
vt 0.296069 0.769032
vt 0.299286 0.768234
vt 0.301863 0.769414
vt 0.297696 0.777600
vt 0.299014 0.776717
vt 0.299171 0.783681
vt 0.298474 0.784108
vt 0.303125 0.778737
vt 0.301773 0.779590
vt 0.300632 0.785132
vt 0.301339 0.784714
vt 0.298283 0.778858
vt 0.298781 0.784740
vt 0.302581 0.777462
vt 0.301044 0.784077
vt 0.299825 0.779784
vt 0.301009 0.776498
vt 0.301205 0.789927
vt 0.301487 0.789648
vt 0.300237 0.789993
vt 0.300395 0.790151
vt 0.301332 0.789488
vt 0.300216 0.783590
vt 0.300960 0.789482
vt 0.299600 0.785216
vt 0.301506 0.793779
vt 0.300766 0.790156
vt 0.300518 0.789713
vt 0.276934 0.908608
vt 0.275409 0.912553
vt 0.281212 0.912486
vt 0.284338 0.909745
vt 0.269522 0.907469
vt 0.270300 0.910812
vt 0.272335 0.904438
vt 0.278609 0.904274
vt 0.284054 0.906242
vt 0.276877 0.914677
vt 0.279909 0.915141
vt 0.278666 0.916209
vt 0.276237 0.916222
vt 0.273843 0.914212
vt 0.274106 0.915511
vt 0.275034 0.913098
vt 0.277542 0.913071
vt 0.279730 0.913818
vt 0.417860 0.905414
vt 0.416842 0.907887
vt 0.420672 0.907864
vt 0.422680 0.906154
vt 0.413037 0.904675
vt 0.413483 0.906763
vt 0.414912 0.902847
vt 0.418941 0.902787
vt 0.422443 0.904003
vt 0.417812 0.912217
vt 0.419793 0.912520
vt 0.418984 0.913172
vt 0.417387 0.913167
vt 0.415831 0.911915
vt 0.415990 0.912715
vt 0.416618 0.911244
vt 0.418248 0.911244
vt 0.419669 0.911710
vt 0.417819 0.910088
vt 0.417070 0.911808
vt 0.419889 0.911811
vt 0.421345 0.910627
vt 0.414292 0.909548
vt 0.414600 0.911002
vt 0.415677 0.908304
vt 0.418603 0.908289
vt 0.421149 0.909142
vt 0.419722 0.917961
vt 0.419721 0.915706
vt 0.418582 0.915882
vt 0.417590 0.915747
vt 0.417491 0.915247
vt 0.418065 0.914726
vt 0.420224 0.914687
vt 0.419223 0.914546
vt 0.420304 0.915193
vn 0.0000 -1.0000 0.0000
vn -0.8771 -0.0119 0.4802
vn 0.8227 0.3251 -0.4663
vn -0.8898 0.0273 -0.4556
vn 0.8354 0.2859 0.4694
vn -0.8283 0.3440 0.4423
vn 0.4675 0.0948 -0.8789
vn -0.4656 0.2921 0.8354
vn -0.4783 0.2388 -0.8451
vn 0.4657 0.1443 0.8731
vn 0.8797 0.0713 0.4702
vn -0.8440 0.3182 -0.4318
vn 0.8780 0.0458 -0.4765
vn 0.8883 0.0796 -0.4524
vn -0.8701 0.1663 -0.4639
vn 0.8763 0.0635 0.4775
vn 0.4665 0.0797 0.8809
vn 0.4225 0.2732 -0.8642
vn -0.4768 0.0400 0.8781
vn -0.5004 0.1127 -0.8584
vn 0.4460 0.2005 0.8723
vn 0.7318 -0.1685 -0.6604
vn -0.6741 0.0161 -0.7384
vn -0.5992 0.4817 0.6395
vn 0.6923 0.2786 0.6657
vn -0.8791 0.1527 0.4516
vn 0.4923 0.1038 -0.8642
vn -0.4926 0.1262 0.8611
vn -0.4700 0.1576 -0.8685
vn 0.1054 -0.9944 0.0011
vn -0.1054 0.9944 -0.0011
vn -0.3120 0.5021 -0.8066
vn 0.1996 0.5581 0.8054
vn 0.7490 0.6157 0.2447
vn -0.8614 0.4444 -0.2458
vn 0.7453 0.6148 -0.2579
vn -0.8577 0.4454 0.2567
vn 0.1878 0.5551 -0.8103
vn -0.3002 0.5051 0.8092
vn -0.3200 0.3217 -0.8911
vn 0.2453 0.3836 0.8904
vn 0.8525 0.4473 0.2706
vn -0.9272 0.2580 -0.2714
vn 0.8484 0.4462 -0.2847
vn -0.9232 0.2590 0.2840
vn 0.2322 0.3802 -0.8953
vn -0.3070 0.3250 0.8945
vn 0.2952 0.3703 -0.8808
vn -0.7837 0.5685 -0.2501
vn -0.7733 0.5785 0.2594
vn 0.3059 0.4107 0.8589
vn -0.3020 0.3695 -0.8788
vn 0.2698 0.3437 0.8995
vn 0.9128 0.2976 0.2798
vn -0.8795 0.3993 -0.2590
vn 0.9084 0.2973 -0.2940
vn -0.8757 0.3998 0.2707
vn 0.2562 0.3426 -0.9039
vn -0.2891 0.3708 0.8826
vn 0.9175 0.2768 -0.2858
vn -0.2385 0.4625 -0.8540
vn -0.2175 0.4990 0.8389
vn 0.9179 0.2906 0.2702
usemtl wood.003
s off
f 9/1/1 8/2/1 4/3/1 7/4/1
f 5/5/1 3/6/1 8/2/1 9/1/1
f 1/7/1 5/5/1 9/1/1 6/8/1
f 6/8/1 9/1/1 7/4/1 2/9/1
f 14/10/2 10/11/2 19/12/2 23/13/2
f 16/14/3 13/15/3 22/16/3 25/17/3
f 12/18/4 14/10/4 23/13/4 21/19/4
f 11/20/5 16/14/5 25/17/5 20/21/5
f 5/5/6 1/7/6 10/11/6 14/10/6
f 4/3/7 8/2/7 17/22/7 13/15/7
f 1/7/8 6/8/8 15/23/8 10/11/8
f 8/2/9 3/6/9 12/18/9 17/22/9
f 6/8/10 2/9/10 11/20/10 15/23/10
f 2/9/11 7/4/11 16/14/11 11/20/11
f 3/6/12 5/5/12 14/10/12 12/18/12
f 7/4/13 4/3/13 13/15/13 16/14/13
f 25/17/14 22/16/14 29/24/14 32/25/14
f 21/19/15 23/13/15 30/26/15 28/27/15
f 20/21/16 25/17/16 32/25/16 27/28/16
f 24/29/17 20/21/17 27/28/17 31/30/17
f 13/15/18 17/22/18 26/31/18 22/16/18
f 10/11/19 15/23/19 24/29/19 19/12/19
f 17/22/20 12/18/20 21/19/20 26/31/20
f 15/23/21 11/20/21 20/21/21 24/29/21
f 34/32/22 32/25/22 29/24/22 33/33/22
f 30/26/23 34/32/23 33/33/23 28/27/23
f 18/34/24 31/30/24 34/32/24 30/26/24
f 31/30/25 27/28/25 32/25/25 34/32/25
f 23/13/26 19/12/26 18/34/26 30/26/26
f 22/16/27 26/31/27 33/33/27 29/24/27
f 19/12/28 24/29/28 31/30/28 18/34/28
f 26/31/29 21/19/29 28/27/29 33/33/29
f 43/35/30 42/36/30 38/37/30 41/38/30
f 39/39/30 37/40/30 42/36/30 43/35/30
f 35/41/30 39/39/30 43/35/30 40/42/30
f 40/42/30 43/35/30 41/38/30 36/43/30
f 52/44/31 50/45/31 47/46/31 51/47/31
f 48/48/31 52/44/31 51/47/31 46/49/31
f 44/50/31 49/51/31 52/44/31 48/48/31
f 49/51/31 45/52/31 50/45/31 52/44/31
f 42/36/32 37/40/32 46/49/32 51/47/32
f 40/42/33 36/43/33 45/52/33 49/51/33
f 36/43/34 41/38/34 50/45/34 45/52/34
f 37/40/35 39/39/35 48/48/35 46/49/35
f 41/38/36 38/37/36 47/46/36 50/45/36
f 39/39/37 35/41/37 44/50/37 48/48/37
f 38/37/38 42/36/38 51/47/38 47/46/38
f 35/41/39 40/42/39 49/51/39 44/50/39
f 61/53/30 60/54/30 56/55/30 59/56/30
f 57/57/30 55/58/30 60/54/30 61/53/30
f 53/59/30 57/57/30 61/53/30 58/60/30
f 58/60/30 61/53/30 59/56/30 54/61/30
f 70/62/31 68/63/31 65/64/31 69/65/31
f 66/66/31 70/62/31 69/65/31 64/67/31
f 62/68/31 67/69/31 70/62/31 66/66/31
f 67/69/31 63/70/31 68/63/31 70/62/31
f 60/54/40 55/58/40 64/67/40 69/65/40
f 58/60/41 54/61/41 63/70/41 67/69/41
f 54/61/42 59/56/42 68/63/42 63/70/42
f 55/58/43 57/57/43 66/66/43 64/67/43
f 59/56/44 56/55/44 65/64/44 68/63/44
f 57/57/45 53/59/45 62/68/45 66/66/45
f 56/55/46 60/54/46 69/65/46 65/64/46
f 53/59/47 58/60/47 67/69/47 62/68/47
f 79/71/30 78/72/30 74/73/30 77/74/30
f 75/75/30 73/76/30 78/72/30 79/71/30
f 71/77/30 75/75/30 79/71/30 76/78/30
f 76/78/30 79/71/30 77/74/30 72/79/30
f 88/80/48 83/81/48 87/82/48
f 88/80/49 82/83/49 84/84/49
f 80/85/50 88/80/50 84/84/50
f 81/86/51 88/80/51 85/87/51
f 78/72/52 73/76/52 82/83/52 87/82/52
f 76/78/53 72/79/53 81/86/53 85/87/53
f 72/79/54 77/74/54 86/88/54 81/86/54
f 73/76/55 75/75/55 84/84/55 82/83/55
f 77/74/56 74/73/56 83/81/56 86/88/56
f 75/75/57 71/77/57 80/85/57 84/84/57
f 74/73/58 78/72/58 87/82/58 83/81/58
f 71/77/59 76/78/59 85/87/59 80/85/59
f 88/80/60 86/88/60 83/81/60
f 88/80/61 87/82/61 82/83/61
f 80/85/62 85/87/62 88/80/62
f 81/86/63 86/88/63 88/80/63
