# Blender v2.91.2 OBJ File: ''
# www.blender.org
mtllib cloud_4.mtl
o Cloud_4_Icosphere.045
v 1.154484 -0.684936 -0.215484
v 0.826702 -1.050882 -0.460812
v 1.224633 -0.731664 -0.703742
v 0.337259 -0.898739 -0.724086
v 0.311640 -0.732821 -0.240513
v 0.219280 -0.104865 -0.530427
v 0.840004 -0.581756 -1.146413
v 0.264471 -0.138247 -0.924367
v 1.313301 -0.128896 -0.551246
v 0.721332 0.181372 -0.530185
v 0.860633 -0.003664 -0.968203
v 0.467918 0.085465 -0.354057
v 0.573572 -0.694170 -0.009183
v -0.494969 0.476278 0.481049
v -0.650347 0.007152 -0.158389
v -0.140572 0.476278 -0.156125
v -0.896123 0.221173 0.349002
v -1.261759 0.238643 -0.081432
v -0.758420 0.326368 -0.611913
v -1.103535 0.852393 -0.555255
v -0.565395 0.735933 -0.668881
v -1.285278 0.849848 0.228270
v -0.717846 1.040832 0.395254
v -0.862191 1.268390 -0.158389
v -0.250780 1.036900 -0.081432
v -1.376877 0.605911 -0.081432
v 0.559025 -0.501001 0.600754
v 0.802367 -0.351330 0.884580
v 0.364288 -0.351330 0.919893
v 0.314684 -0.431589 0.600754
v 0.483521 -0.431590 0.368374
v 0.954377 -0.280579 0.600754
v 0.914102 0.090013 0.930910
v 0.354753 0.090013 1.040477
v 0.143326 -0.244086 0.600754
v 0.117006 -0.036235 0.744373
v 0.974724 0.171615 0.600754
v 0.878247 0.216034 0.357821
v 0.678202 0.429979 0.687341
v 0.361350 0.359120 0.457136
v 0.361350 0.359120 0.744372
v 0.163673 0.208109 0.600754
v 1.001044 -0.036235 0.457136
v 0.756700 -0.431590 0.457137
v -0.569386 -0.448212 0.444520
v -0.805513 -0.843769 0.037110
v -0.470936 -0.509058 0.037110
v -1.198704 -0.872153 0.248121
v -1.676471 -0.668439 -0.153704
v -1.180228 -0.627028 -0.584248
v -1.380128 -0.143169 -0.732257
v -0.569386 -0.448212 -0.370300
v -0.674641 -0.101640 -0.589836
v -1.132948 -0.507553 0.728589
v -1.016404 0.082398 0.809192
v -1.582805 0.178119 0.654734
v -0.596833 0.305778 0.424582
v -1.268213 0.720369 0.137423
v -0.722731 0.557571 0.037110
v -1.080060 0.423748 -0.584248
v -0.596833 0.305778 -0.350362
v -1.786914 0.304268 -0.179237
v -1.939104 -0.143170 0.037110
v -0.674641 -0.101640 0.664056
v -1.788648 -0.507549 0.248120
v 1.486272 -0.356020 0.641650
v 1.358244 -0.818389 0.024024
v 1.690381 -0.482170 -0.192322
v 0.965052 -0.846773 0.235035
v 0.770981 -0.818390 -0.166788
v 1.842572 -0.034731 0.024024
v 1.030809 -0.482173 -0.667454
v 0.500301 -0.483679 -0.363448
v 0.578109 -0.076260 -0.602922
v 1.283596 -0.034731 -0.745343
v 0.472854 0.270312 0.431434
v 1.083697 0.449128 0.645382
v 0.708981 0.665869 0.024024
v 0.472854 0.270312 -0.383386
v 0.374404 0.331158 0.024024
v 1.579937 0.490538 -0.166790
v 1.036416 0.329652 -0.667455
v 1.102172 0.694252 -0.186986
v 1.692116 0.329651 0.235034
v 0.578109 -0.076260 0.650970
v 0.919872 -0.260298 0.796105
v 0.500301 -0.483678 0.411496
v 0.340478 -0.422829 0.024024
v -0.177141 -1.047396 0.296314
v -0.793653 -0.784522 0.270253
v -0.323912 -0.753856 -0.699983
v 0.330237 -1.010769 0.024024
v -0.938410 -0.576912 -0.248265
v -1.132560 -0.106710 0.024024
v -0.676457 -0.053120 -0.784993
v 0.758830 -0.576910 0.303199
v 0.955218 0.000469 0.024024
v 0.233909 0.000470 1.016822
v -0.092289 -0.576913 0.916315
v -0.672787 0.307884 0.821013
v 0.233909 0.000469 -0.968774
v 0.438737 -0.576912 -0.695725
v 0.616312 0.678281 0.270252
v 0.761068 0.470670 -0.248266
v -0.000201 0.941156 -0.248266
v -0.085053 0.470672 -0.868267
v -0.507579 0.904529 0.024024
v -0.936172 0.470670 -0.255151
v 0.146570 0.647615 0.748031
vt 0.266525 0.863147
vt 0.331641 0.847281
vt 0.304195 0.909705
vt 0.793101 0.886836
vt 0.771402 0.849965
vt 0.846739 0.810769
vt 0.870386 0.927929
vt 0.874484 0.835661
vt 0.841858 0.012664
vt 0.899288 0.056963
vt 0.791852 0.067840
vt 0.815239 0.137841
vt 0.853014 0.113739
vt 0.974340 0.738580
vt 0.904820 0.724344
vt 0.974340 0.679537
vt 0.942772 0.655895
vt 0.903975 0.676191
vt 0.897322 0.137841
vt 0.242439 0.920690
vt 0.349710 0.920690
vt 0.776491 0.927929
vt 0.974948 0.012664
vt 0.986013 0.082001
vt 0.936142 0.040674
vt 0.924615 0.082001
vt 0.284291 0.797627
vt 0.020699 0.867449
vt 0.093734 0.933156
vt 0.012664 0.956092
vt 0.878648 0.659345
vt 0.858503 0.702583
vt 0.809867 0.655895
vt 0.746075 0.888793
vt 0.672847 0.940953
vt 0.682677 0.844889
vt 0.454613 0.857862
vt 0.542606 0.823822
vt 0.538806 0.865825
vt 0.878648 0.753217
vt 0.771544 0.729968
vt 0.745175 0.839835
vt 0.822621 0.257793
vt 0.892274 0.238370
vt 0.896366 0.294819
vt 0.847525 0.351804
vt 0.896366 0.374619
vt 0.473515 0.925170
vt 0.542606 0.951825
vt 0.971085 0.483491
vt 0.890958 0.496758
vt 0.932294 0.443756
vt 0.799720 0.300800
vt 0.812459 0.785442
vt 0.971085 0.558292
vt 0.887142 0.564142
vt 0.642508 0.905499
vt 0.771402 0.682276
vt 0.093734 0.976338
vt 0.746075 0.948700
vt 0.080054 0.863249
vt 0.941328 0.317615
vt 0.972567 0.282172
vt 0.987336 0.324446
vt 0.919070 0.811853
vt 0.936971 0.838083
vt 0.903634 0.834450
vt 0.406210 0.484607
vt 0.422201 0.463697
vt 0.422201 0.498169
vt 0.937750 0.262962
vt 0.987336 0.238370
vt 0.968109 0.810769
vt 0.968109 0.884224
vt 0.899811 0.864819
vt 0.919706 0.887471
vt 0.588651 0.649699
vt 0.616697 0.643914
vt 0.616697 0.684901
vt 0.195934 0.548637
vt 0.156114 0.518722
vt 0.195934 0.500173
vt 0.160431 0.485156
vt 0.181082 0.573965
vt 0.181082 0.620734
vt 0.156114 0.598475
vt 0.165813 0.853828
vt 0.210568 0.866369
vt 0.139755 0.875498
vt 0.173739 0.915526
vt 0.138380 0.924408
vt 0.924199 0.910843
vt 0.210568 0.945383
vt 0.142198 0.948907
vt 0.175079 0.961103
vt 0.921694 0.293712
vt 0.735159 0.775016
vt 0.689468 0.715654
vt 0.746075 0.724521
vt 0.676454 0.238370
vt 0.708996 0.275095
vt 0.641828 0.319052
vt 0.645696 0.743284
vt 0.675760 0.655895
vt 0.679863 0.372767
vt 0.563324 0.777604
vt 0.492777 0.798495
vt 0.530837 0.745841
vt 0.307243 0.636803
vt 0.377613 0.639389
vt 0.377613 0.708598
vt 0.812381 0.556177
vt 0.782192 0.488221
vt 0.861814 0.464231
vt 0.465777 0.157890
vt 0.463395 0.073998
vt 0.517379 0.153723
vt 0.563324 0.643914
vt 0.549634 0.690505
vt 0.484519 0.680178
vt 0.561753 0.075544
vt 0.603102 0.157890
vt 0.861814 0.563469
vt 0.799559 0.443756
vt 0.504410 0.012664
vt 0.608342 0.063184
vt 0.763715 0.543701
vt 0.454613 0.746805
vt 0.774392 0.308812
vt 0.774392 0.371247
vt 0.751409 0.261678
vt 0.309292 0.772300
vt 0.279939 0.732209
vt 0.770762 0.603717
vt 0.671358 0.811794
vt 0.746075 0.814507
vt 0.745993 0.680706
vt 0.242685 0.740966
vt 0.242439 0.661563
vt 0.380882 0.555207
vt 0.292327 0.521322
vt 0.321804 0.467358
vt 0.281959 0.572036
vt 0.242439 0.550621
vt 0.380882 0.463697
vt 0.138380 0.772569
vt 0.185802 0.717142
vt 0.211671 0.769550
vt 0.735330 0.162248
vt 0.636620 0.162248
vt 0.651555 0.119382
vt 0.159017 0.823955
vt 0.764812 0.107227
vt 0.110262 0.813327
vt 0.037444 0.837922
vt 0.056877 0.775537
vt 0.103378 0.717572
vt 0.113053 0.768367
vt 0.723135 0.046842
vt 0.633670 0.068971
vt 0.676918 0.012664
vt 0.012664 0.747652
vt 0.038956 0.680352
vt 0.130787 0.582698
vt 0.076127 0.485156
vt 0.130787 0.496848
vt 0.062977 0.522582
vt 0.766525 0.054713
vt 0.213397 0.828501
vt 0.113053 0.679772
vt 0.688213 0.566017
vt 0.713325 0.630568
vt 0.649595 0.588622
vt 0.738388 0.560650
vt 0.025994 0.615838
vt 0.012664 0.522446
vt 0.685921 0.507596
vt 0.081924 0.654445
vt 0.246391 0.476862
vt 0.139482 0.692869
vt 0.213397 0.679772
vt 0.695492 0.443756
vt 0.645696 0.489231
vt 0.738388 0.466999
vt 0.365140 0.611475
vt 0.148424 0.012664
vt 0.203382 0.058254
vt 0.081693 0.082308
vt 0.284964 0.159092
vt 0.242439 0.063582
vt 0.311200 0.097665
vt 0.454613 0.389881
vt 0.467164 0.337586
vt 0.515471 0.418429
vt 0.175102 0.102425
vt 0.109934 0.174148
vt 0.148420 0.459829
vt 0.069683 0.441213
vt 0.177570 0.342438
vt 0.543053 0.245751
vt 0.616501 0.238370
vt 0.616501 0.352682
vt 0.012664 0.165003
vt 0.620369 0.618587
vt 0.544614 0.615453
vt 0.620369 0.489489
vt 0.536778 0.443756
vt 0.555530 0.492749
vt 0.454613 0.506204
vt 0.478827 0.594566
vt 0.429286 0.351793
vt 0.394680 0.438369
vt 0.372515 0.315363
vt 0.302256 0.356969
vt 0.310767 0.238370
vt 0.417885 0.245368
vt 0.106507 0.293884
vt 0.046484 0.349357
vt 0.012664 0.296043
vt 0.051952 0.223440
vt 0.299061 0.438369
vt 0.242439 0.339920
vt 0.177570 0.248767
vt 0.018082 0.397805
vt 0.013740 0.084742
vt 0.217112 0.152365
vt 0.179174 0.223440
vt 0.362434 0.213043
vt 0.393032 0.094481
vt 0.438067 0.196872
vt 0.314147 0.012664
vt 0.438067 0.047743
vt 0.455169 0.262785
vn 0.6767 -0.7173 0.1659
vn -0.9892 -0.1465 -0.0021
vn -0.5174 -0.2639 -0.8140
vn -0.9872 -0.1216 -0.1029
vn 0.7624 0.0511 -0.6451
vn 0.4462 0.8664 -0.2241
vn -0.2284 0.8687 -0.4396
vn -0.4550 0.8721 -0.1798
vn -0.5415 0.8302 -0.1325
vn 0.6931 0.1897 -0.6955
vn -0.1364 0.2963 -0.9453
vn 0.9706 -0.1825 0.1569
vn 0.3067 -0.7883 -0.5334
vn 0.0467 -0.8248 -0.5635
vn -0.4172 -0.8662 0.2751
vn -0.3028 -0.8231 0.4804
vn 0.2535 -0.6850 0.6831
vn 0.6330 -0.6895 0.3521
vn -0.3185 -0.9188 0.2333
vn -0.6488 -0.3531 -0.6740
vn 0.6068 -0.3829 -0.6966
vn -0.3081 -0.0080 0.9513
vn -0.2137 -0.0351 -0.9763
vn -0.3997 0.8065 0.4357
vn -0.7690 0.6144 -0.1764
vn -0.0030 0.6912 -0.7227
vn 0.3528 0.7425 -0.5694
vn 0.3062 0.9059 0.2925
vn 0.8035 0.2310 -0.5487
vn -0.8170 0.5452 -0.1877
vn -0.2915 0.0302 0.9561
vn 0.6672 0.3623 0.6508
vn 0.8690 0.1064 0.4833
vn -0.7795 -0.2443 -0.5768
vn -0.8474 -0.2656 0.4598
vn -0.7252 -0.3332 0.6025
vn 0.5617 -0.6076 -0.5615
vn -0.3631 -0.8005 -0.4769
vn 0.3411 -0.7955 0.5008
vn 0.0356 -0.8963 0.4421
vn -0.2628 -0.9253 0.2735
vn -0.2680 -0.9435 -0.1947
vn 0.8761 -0.2641 0.4034
vn 0.0776 -0.2612 0.9622
vn -0.8113 -0.3984 0.4279
vn 0.6340 0.7652 -0.1119
vn 0.1495 0.8683 -0.4730
vn -0.2182 0.9759 0.0000
vn -0.7253 0.5175 0.4541
vn -0.0446 0.7398 0.6714
vn 0.1474 0.6416 0.7527
vn 0.6754 0.6774 0.2914
vn -0.7872 0.4173 0.4541
vn -0.7218 -0.1969 0.6635
vn 0.1901 -0.1500 0.9703
vn 0.9836 -0.0002 0.1805
vn 0.9777 -0.0703 0.1981
vn -0.7100 -0.6489 0.2735
vn 0.5600 -0.8231 0.0947
vn 0.4089 -0.9038 0.1260
vn 0.6817 -0.6814 0.2665
vn -0.1658 -0.9450 -0.2820
vn -0.0830 -0.9555 -0.2832
vn -0.5651 -0.4458 -0.6942
vn 0.4049 -0.3984 -0.8230
vn -0.2744 -0.0768 0.9586
vn 0.1879 0.7464 0.6384
vn 0.2157 0.9216 -0.3226
vn 0.3973 0.8231 -0.4058
vn -0.3867 0.8131 -0.4350
vn -0.6976 0.6633 0.2711
vn -0.0711 0.7098 0.7008
vn 0.3301 0.8369 0.4366
vn 0.4765 0.3761 -0.7947
vn -0.4992 0.4565 -0.7365
vn -0.8617 0.4262 0.2754
vn 0.5212 0.3563 0.7755
vn 0.1868 0.1544 -0.9702
vn 0.2053 -0.2077 -0.9564
vn -0.8090 -0.0090 -0.5878
vn -0.7947 -0.1876 -0.5773
vn -0.9031 -0.4212 -0.0835
vn -0.8532 -0.0517 0.5191
vn -0.5660 -0.2881 0.7724
vn 0.2972 -0.1866 0.9364
vn 0.4482 -0.3772 0.8104
vn 0.4010 -0.7624 -0.5078
vn -0.5161 -0.8351 0.1903
vn -0.4272 -0.6912 0.5829
vn 0.6817 -0.6814 -0.2665
vn 0.3439 -0.7701 0.5373
vn 0.3439 -0.7697 0.5379
vn 0.3446 -0.7696 0.5376
vn 0.3522 -0.7652 0.5389
vn 0.7666 -0.5801 0.2754
vn 0.0271 -0.9961 -0.0835
vn 0.8617 -0.4262 0.2754
vn -0.4583 -0.3837 -0.8017
vn 0.5287 -0.4264 -0.7339
vn -0.1941 -0.0608 -0.9791
vn 0.8090 0.0090 -0.5878
vn -0.4010 0.7624 0.5078
vn -0.6817 0.6814 -0.2665
vn 0.3356 0.7277 -0.5982
vn -0.3439 0.7701 -0.5373
vn -0.3446 0.7696 -0.5376
vn -0.3439 0.7697 -0.5379
vn -0.3522 0.7652 -0.5389
vn -0.6817 0.6814 0.2665
vn 0.0830 0.9555 0.2832
vn 0.3679 0.8897 0.2702
vn 0.3527 0.8985 0.2613
vn 0.9031 0.4212 -0.0835
vn 0.7947 0.1876 -0.5773
vn 0.5054 0.4941 -0.7074
vn -0.2014 0.0722 -0.9768
vn -0.4482 0.3772 -0.8104
vn -0.4049 0.3984 0.8230
vn -0.2570 0.2573 0.9315
vn 0.5739 0.2834 0.7684
vn 0.8532 0.0517 0.5191
vn -0.5212 -0.3563 0.7755
vn 0.2820 0.1366 0.9496
vn 0.3933 -0.7398 -0.5459
vn 0.1598 -0.8559 -0.4918
vn -0.3661 -0.6734 -0.6422
vn -0.7081 -0.6814 -0.1851
vn -0.6347 -0.7595 0.1425
vn -0.5514 -0.8075 0.2093
vn -0.2683 -0.6766 0.6857
vn 0.0814 -0.6857 0.7233
vn 0.3353 -0.7862 0.5191
vn -0.3759 -0.9024 -0.2105
vn -0.0764 -0.9594 -0.2714
vn -0.9031 -0.4212 0.0835
vn -0.6155 -0.3926 -0.6835
vn 0.8090 0.0090 0.5878
vn -0.2247 -0.0425 0.9735
vn -0.1818 -0.2080 -0.9611
vn 0.5161 0.8351 -0.1903
vn 0.4272 0.6912 -0.5829
vn -0.3933 0.7398 -0.5459
vn -0.7666 0.5801 0.2754
vn 0.0764 0.9594 0.2714
vn -0.2819 0.7952 0.5369
vn 0.1933 0.9485 0.2510
vn 0.8090 -0.0063 -0.5878
vn 0.5128 0.4974 -0.6998
vn -0.2014 0.0721 -0.9768
vn -0.5162 0.4689 -0.7166
vn -0.0728 0.3742 0.9245
vn 0.6523 0.3641 0.6647
vn 0.7947 0.1876 0.5773
vn 0.9031 0.4212 0.0835
vn 0.0972 -0.3971 -0.9126
vn -0.8712 0.0608 -0.4871
vn -0.8668 -0.0721 -0.4934
vn -0.8019 -0.1959 0.5645
vn -0.5932 -0.3091 0.7433
vn 0.5287 -0.4264 0.7339
vn 0.8614 -0.4264 -0.2760
vn 0.2004 -0.8521 -0.4834
vn -0.4231 -0.8757 -0.2325
vn -0.3356 -0.7277 0.5982
vn 0.7639 -0.5971 -0.2448
vn 0.3933 -0.7398 0.5459
usemtl None.003
s 1
f 1/1/1 2/2/1 3/3/1
f 4/4/2 5/5/2 6/6/2
f 7/7/3 4/4/3 8/8/3
f 4/4/4 6/6/4 8/8/4
f 3/9/5 7/10/5 9/11/5
f 10/12/6 9/11/6 11/13/6
f 11/14/7 8/15/7 10/16/7
f 8/15/8 12/17/8 10/16/8
f 8/15/9 6/18/9 12/17/9
f 7/10/10 11/13/10 9/11/10
f 7/10/11 8/19/11 11/13/11
f 1/1/12 3/3/12 9/20/12
f 2/2/13 7/21/13 3/3/13
f 2/22/14 4/4/14 7/7/14
f 4/23/15 2/24/15 5/25/15
f 2/24/16 13/26/16 5/25/16
f 2/2/17 1/1/17 13/27/17
f 14/28/18 15/29/18 16/30/18
f 15/31/19 17/32/19 18/33/19
f 19/34/20 18/35/20 20/36/20
f 16/37/21 19/38/21 21/39/21
f 17/32/22 14/40/22 22/41/22
f 19/34/23 20/36/23 21/42/23
f 22/43/24 23/44/24 24/45/24
f 20/46/25 22/43/25 24/45/25
f 21/47/26 20/46/26 24/45/26
f 25/48/27 21/39/27 24/49/27
f 23/50/28 25/51/28 24/52/28
f 16/37/29 21/39/29 25/48/29
f 26/53/30 22/43/30 20/46/30
f 22/41/31 14/40/31 23/54/31
f 14/55/32 25/51/32 23/50/32
f 14/55/33 16/56/33 25/51/33
f 20/36/34 18/35/34 26/57/34
f 26/58/35 18/33/35 22/41/35
f 18/33/36 17/32/36 22/41/36
f 15/29/37 19/59/37 16/30/37
f 15/60/38 18/35/38 19/34/38
f 17/61/39 15/29/39 14/28/39
f 27/62/40 28/63/40 29/64/40
f 27/65/41 29/66/41 30/67/41
f 27/68/42 30/69/42 31/70/42
f 28/63/43 32/71/43 33/72/43
f 29/66/44 28/73/44 34/74/44
f 35/75/45 29/66/45 36/76/45
f 37/77/46 38/78/46 39/79/46
f 38/80/47 40/81/47 39/82/47
f 40/81/48 41/83/48 39/82/48
f 42/84/49 34/85/49 41/86/49
f 41/87/50 34/88/50 39/89/50
f 34/88/51 33/90/51 39/89/51
f 33/90/52 37/91/52 39/89/52
f 36/76/53 34/74/53 42/92/53
f 36/76/54 29/66/54 34/74/54
f 34/88/55 28/93/55 33/90/55
f 33/90/56 43/94/56 37/91/56
f 33/90/57 32/95/57 43/94/57
f 30/67/58 29/66/58 35/75/58
f 32/71/59 28/63/59 44/96/59
f 28/63/60 27/62/60 44/96/60
f 45/97/61 46/98/61 47/99/61
f 48/100/62 49/101/62 50/102/62
f 48/103/63 50/104/63 46/98/63
f 50/102/64 49/101/64 51/105/64
f 52/106/65 50/107/65 53/108/65
f 54/109/66 55/110/66 56/111/66
f 55/112/67 57/113/67 58/114/67
f 59/115/68 60/116/68 58/117/68
f 59/118/69 61/119/69 60/120/69
f 60/116/70 62/121/70 58/117/70
f 62/121/71 56/122/71 58/117/71
f 56/123/72 55/112/72 58/114/72
f 58/114/73 57/113/73 59/124/73
f 53/108/74 60/120/74 61/119/74
f 51/125/75 62/121/75 60/116/75
f 63/126/76 56/122/76 62/121/76
f 64/127/77 57/113/77 55/112/77
f 53/108/78 51/128/78 60/120/78
f 53/108/79 50/107/79 51/128/79
f 51/105/80 63/129/80 62/130/80
f 51/105/81 49/101/81 63/129/81
f 49/101/82 65/131/82 63/129/82
f 63/132/83 65/133/83 56/111/83
f 65/133/84 54/109/84 56/111/84
f 55/112/85 54/134/85 64/127/85
f 54/135/86 45/97/86 64/136/86
f 46/98/87 50/104/87 52/137/87
f 49/138/88 48/139/88 65/133/88
f 48/139/89 54/109/89 65/133/89
f 47/99/90 46/98/90 52/137/90
f 48/103/91 46/98/92 54/135/93
f 46/98/92 45/97/94 54/135/93
f 66/140/95 67/141/95 68/142/95
f 69/143/96 70/144/96 67/141/96
f 66/140/97 68/142/97 71/145/97
f 72/146/98 73/147/98 74/148/98
f 68/149/99 72/150/99 75/151/99
f 72/146/100 74/148/100 75/152/100
f 68/149/101 75/151/101 71/153/101
f 76/154/102 77/155/102 78/156/102
f 79/157/103 80/158/103 78/156/103
f 81/159/104 82/160/104 83/161/104
f 83/162/105 82/163/106 78/156/107
f 82/163/106 79/157/108 78/156/107
f 80/158/109 76/154/109 78/156/109
f 78/156/110 77/155/110 83/162/110
f 77/164/111 81/165/111 83/166/111
f 77/164/112 84/167/112 81/165/112
f 71/153/113 81/159/113 84/168/113
f 71/153/114 75/151/114 81/159/114
f 75/151/115 82/160/115 81/159/115
f 75/152/116 74/148/116 82/169/116
f 74/170/117 79/157/117 82/163/117
f 85/171/118 77/172/118 76/173/118
f 85/171/119 86/174/119 77/172/119
f 66/175/120 84/167/120 77/164/120
f 66/175/121 71/176/121 84/167/121
f 87/177/122 86/174/122 85/171/122
f 86/178/123 66/175/123 77/164/123
f 67/141/124 72/179/124 68/142/124
f 67/141/125 70/144/125 72/179/125
f 70/180/126 73/147/126 72/146/126
f 70/180/127 88/181/127 73/147/127
f 70/182/128 87/177/128 88/183/128
f 70/182/129 69/184/129 87/177/129
f 69/184/130 86/174/130 87/177/130
f 69/143/131 66/140/131 86/185/131
f 69/143/132 67/141/132 66/140/132
f 89/186/133 90/187/133 91/188/133
f 89/189/134 91/190/134 92/191/134
f 93/192/135 90/193/135 94/194/135
f 91/188/136 93/195/136 95/196/136
f 96/197/137 97/198/137 98/199/137
f 99/200/138 98/201/138 100/202/138
f 91/188/139 95/196/139 101/203/139
f 102/204/101 101/205/101 97/206/101
f 103/207/140 104/208/140 105/209/140
f 104/208/141 106/210/141 105/209/141
f 105/211/105 106/212/105 107/213/105
f 106/212/142 108/214/142 107/213/142
f 108/214/143 100/215/143 107/213/143
f 107/213/144 109/216/144 105/211/144
f 107/213/145 100/215/145 109/216/145
f 109/217/146 103/218/146 105/219/146
f 97/206/147 101/205/147 104/208/147
f 101/205/148 106/210/148 104/208/148
f 101/203/149 95/196/149 106/220/149
f 95/221/150 108/214/150 106/212/150
f 94/222/76 100/215/76 108/214/76
f 98/199/151 109/217/151 100/223/151
f 98/199/152 103/218/152 109/217/152
f 98/199/153 97/198/153 103/218/153
f 97/198/154 104/224/154 103/218/154
f 102/225/155 91/188/155 101/203/155
f 95/196/156 94/226/156 108/227/156
f 95/196/157 93/195/157 94/226/157
f 94/194/158 90/193/158 100/202/158
f 90/193/159 99/200/159 100/202/159
f 99/228/160 96/229/160 98/230/160
f 96/229/161 102/231/161 97/232/161
f 92/191/162 91/190/162 102/231/162
f 91/188/163 90/187/163 93/195/163
f 89/233/164 99/200/164 90/193/164
f 96/229/165 92/191/165 102/231/165
f 89/189/91 92/191/91 99/228/91
f 92/191/166 96/229/166 99/228/166
